<svg xmlns="http://www.w3.org/2000/svg" xmlns:xlink="http://www.w3.org/1999/xlink" width="1920" zoomAndPan="magnify" viewBox="0 0 1440 809.999993" height="1080" preserveAspectRatio="xMidYMid meet" version="1.0"><defs><clipPath id="cf4c319939"><path d="M 229.199219 16.457031 L 1209.820312 16.457031 L 1209.820312 655.230469 L 229.199219 655.230469 Z M 229.199219 16.457031 " clip-rule="nonzero"/></clipPath><clipPath id="bb6c7d3426"><path d="M 267.449219 16.457031 L 1172.550781 16.457031 C 1182.695312 16.457031 1192.425781 20.484375 1199.597656 27.660156 C 1206.773438 34.832031 1210.800781 44.5625 1210.800781 54.707031 L 1210.800781 616.980469 C 1210.800781 627.125 1206.773438 636.855469 1199.597656 644.027344 C 1192.425781 651.203125 1182.695312 655.230469 1172.550781 655.230469 L 267.449219 655.230469 C 257.304688 655.230469 247.574219 651.203125 240.402344 644.027344 C 233.226562 636.855469 229.199219 627.125 229.199219 616.980469 L 229.199219 54.707031 C 229.199219 44.5625 233.226562 34.832031 240.402344 27.660156 C 247.574219 20.484375 257.304688 16.457031 267.449219 16.457031 Z M 267.449219 16.457031 " clip-rule="nonzero"/></clipPath><linearGradient x1="0.00169478" gradientTransform="matrix(2.495219, 0, 0, 2.495219, 229.194184, 16.45583)" y1="128" x2="393.001694" gradientUnits="userSpaceOnUse" y2="128" id="7cd30afc77"><stop stop-opacity="1" stop-color="rgb(77.2995%, 87.799072%, 96.099854%)" offset="0"/><stop stop-opacity="1" stop-color="rgb(77.416992%, 87.814331%, 96.058655%)" offset="0.015625"/><stop stop-opacity="1" stop-color="rgb(77.655029%, 87.846375%, 95.979309%)" offset="0.03125"/><stop stop-opacity="1" stop-color="rgb(77.891541%, 87.876892%, 95.899963%)" offset="0.046875"/><stop stop-opacity="1" stop-color="rgb(78.129578%, 87.90741%, 95.820618%)" offset="0.0625"/><stop stop-opacity="1" stop-color="rgb(78.366089%, 87.939453%, 95.741272%)" offset="0.078125"/><stop stop-opacity="1" stop-color="rgb(78.604126%, 87.969971%, 95.661926%)" offset="0.09375"/><stop stop-opacity="1" stop-color="rgb(78.840637%, 88.002014%, 95.581055%)" offset="0.109375"/><stop stop-opacity="1" stop-color="rgb(79.078674%, 88.032532%, 95.501709%)" offset="0.125"/><stop stop-opacity="1" stop-color="rgb(79.315186%, 88.064575%, 95.422363%)" offset="0.140625"/><stop stop-opacity="1" stop-color="rgb(79.553223%, 88.095093%, 95.343018%)" offset="0.15625"/><stop stop-opacity="1" stop-color="rgb(79.789734%, 88.127136%, 95.263672%)" offset="0.171875"/><stop stop-opacity="1" stop-color="rgb(80.027771%, 88.157654%, 95.184326%)" offset="0.1875"/><stop stop-opacity="1" stop-color="rgb(80.264282%, 88.189697%, 95.103455%)" offset="0.203125"/><stop stop-opacity="1" stop-color="rgb(80.502319%, 88.220215%, 95.024109%)" offset="0.21875"/><stop stop-opacity="1" stop-color="rgb(80.738831%, 88.252258%, 94.944763%)" offset="0.234375"/><stop stop-opacity="1" stop-color="rgb(80.976868%, 88.282776%, 94.865417%)" offset="0.25"/><stop stop-opacity="1" stop-color="rgb(81.213379%, 88.313293%, 94.786072%)" offset="0.265625"/><stop stop-opacity="1" stop-color="rgb(81.451416%, 88.345337%, 94.7052%)" offset="0.28125"/><stop stop-opacity="1" stop-color="rgb(81.687927%, 88.375854%, 94.625854%)" offset="0.296875"/><stop stop-opacity="1" stop-color="rgb(81.925964%, 88.407898%, 94.546509%)" offset="0.3125"/><stop stop-opacity="1" stop-color="rgb(82.162476%, 88.438416%, 94.467163%)" offset="0.328125"/><stop stop-opacity="1" stop-color="rgb(82.400513%, 88.470459%, 94.387817%)" offset="0.34375"/><stop stop-opacity="1" stop-color="rgb(82.637024%, 88.500977%, 94.308472%)" offset="0.359375"/><stop stop-opacity="1" stop-color="rgb(82.875061%, 88.53302%, 94.2276%)" offset="0.375"/><stop stop-opacity="1" stop-color="rgb(83.111572%, 88.563538%, 94.148254%)" offset="0.390625"/><stop stop-opacity="1" stop-color="rgb(83.349609%, 88.595581%, 94.068909%)" offset="0.40625"/><stop stop-opacity="1" stop-color="rgb(83.586121%, 88.626099%, 93.989563%)" offset="0.421875"/><stop stop-opacity="1" stop-color="rgb(83.824158%, 88.658142%, 93.910217%)" offset="0.4375"/><stop stop-opacity="1" stop-color="rgb(84.060669%, 88.68866%, 93.830872%)" offset="0.453125"/><stop stop-opacity="1" stop-color="rgb(84.298706%, 88.719177%, 93.75%)" offset="0.46875"/><stop stop-opacity="1" stop-color="rgb(84.535217%, 88.751221%, 93.670654%)" offset="0.484375"/><stop stop-opacity="1" stop-color="rgb(84.773254%, 88.781738%, 93.591309%)" offset="0.5"/><stop stop-opacity="1" stop-color="rgb(85.009766%, 88.813782%, 93.511963%)" offset="0.515625"/><stop stop-opacity="1" stop-color="rgb(85.247803%, 88.844299%, 93.432617%)" offset="0.53125"/><stop stop-opacity="1" stop-color="rgb(85.484314%, 88.876343%, 93.353271%)" offset="0.546875"/><stop stop-opacity="1" stop-color="rgb(85.722351%, 88.90686%, 93.2724%)" offset="0.5625"/><stop stop-opacity="1" stop-color="rgb(85.958862%, 88.938904%, 93.193054%)" offset="0.578125"/><stop stop-opacity="1" stop-color="rgb(86.196899%, 88.969421%, 93.113708%)" offset="0.59375"/><stop stop-opacity="1" stop-color="rgb(86.433411%, 89.001465%, 93.034363%)" offset="0.609375"/><stop stop-opacity="1" stop-color="rgb(86.671448%, 89.031982%, 92.955017%)" offset="0.625"/><stop stop-opacity="1" stop-color="rgb(86.907959%, 89.0625%, 92.875671%)" offset="0.640625"/><stop stop-opacity="1" stop-color="rgb(87.145996%, 89.094543%, 92.7948%)" offset="0.65625"/><stop stop-opacity="1" stop-color="rgb(87.382507%, 89.125061%, 92.715454%)" offset="0.671875"/><stop stop-opacity="1" stop-color="rgb(87.620544%, 89.157104%, 92.636108%)" offset="0.6875"/><stop stop-opacity="1" stop-color="rgb(87.857056%, 89.187622%, 92.556763%)" offset="0.703125"/><stop stop-opacity="1" stop-color="rgb(88.095093%, 89.219666%, 92.477417%)" offset="0.71875"/><stop stop-opacity="1" stop-color="rgb(88.331604%, 89.250183%, 92.398071%)" offset="0.734375"/><stop stop-opacity="1" stop-color="rgb(88.568115%, 89.282227%, 92.3172%)" offset="0.75"/><stop stop-opacity="1" stop-color="rgb(88.806152%, 89.312744%, 92.237854%)" offset="0.765625"/><stop stop-opacity="1" stop-color="rgb(89.042664%, 89.344788%, 92.158508%)" offset="0.78125"/><stop stop-opacity="1" stop-color="rgb(89.280701%, 89.375305%, 92.079163%)" offset="0.796875"/><stop stop-opacity="1" stop-color="rgb(89.517212%, 89.407349%, 91.999817%)" offset="0.8125"/><stop stop-opacity="1" stop-color="rgb(89.755249%, 89.437866%, 91.918945%)" offset="0.828125"/><stop stop-opacity="1" stop-color="rgb(89.99176%, 89.468384%, 91.8396%)" offset="0.84375"/><stop stop-opacity="1" stop-color="rgb(90.229797%, 89.500427%, 91.760254%)" offset="0.859375"/><stop stop-opacity="1" stop-color="rgb(90.466309%, 89.530945%, 91.680908%)" offset="0.875"/><stop stop-opacity="1" stop-color="rgb(90.704346%, 89.562988%, 91.601562%)" offset="0.890625"/><stop stop-opacity="1" stop-color="rgb(90.940857%, 89.593506%, 91.522217%)" offset="0.90625"/><stop stop-opacity="1" stop-color="rgb(91.178894%, 89.625549%, 91.441345%)" offset="0.921875"/><stop stop-opacity="1" stop-color="rgb(91.415405%, 89.656067%, 91.362%)" offset="0.9375"/><stop stop-opacity="1" stop-color="rgb(91.653442%, 89.68811%, 91.282654%)" offset="0.953125"/><stop stop-opacity="1" stop-color="rgb(91.889954%, 89.718628%, 91.203308%)" offset="0.96875"/><stop stop-opacity="1" stop-color="rgb(92.127991%, 89.750671%, 91.123962%)" offset="0.984375"/><stop stop-opacity="1" stop-color="rgb(92.364502%, 89.781189%, 91.044617%)" offset="1"/></linearGradient><clipPath id="647db0af3a"><path d="M 293.980469 73.628906 L 1147 73.628906 L 1147 599.824219 L 293.980469 599.824219 Z M 293.980469 73.628906 " clip-rule="nonzero"/></clipPath><clipPath id="4b8fb06ac3"><path d="M 1096.105469 73.628906 L 345.394531 73.628906 C 345.394531 101.921875 322.515625 125.042969 293.980469 125.042969 L 293.980469 548.410156 C 322.269531 548.410156 345.394531 571.285156 345.394531 599.824219 L 1096.105469 599.824219 C 1096.105469 571.53125 1118.984375 548.410156 1147.519531 548.410156 L 1147.519531 125.042969 C 1119.230469 125.042969 1096.105469 102.167969 1096.105469 73.628906 Z M 1096.105469 73.628906 " clip-rule="nonzero"/></clipPath><clipPath id="efe135910d"><path d="M 301.882812 103.882812 L 1116.804688 103.882812 L 1116.804688 467 L 301.882812 467 Z M 301.882812 103.882812 " clip-rule="nonzero"/></clipPath><clipPath id="6d6ccfce51"><path d="M 301.882812 155.632812 L 301.882812 415.078125 C 301.882812 443.65625 325.054688 466.828125 353.632812 466.828125 L 1065.519531 466.828125 C 1094.097656 466.828125 1117.269531 443.65625 1117.269531 415.078125 L 1117.269531 155.632812 C 1117.269531 127.050781 1094.097656 103.882812 1065.519531 103.882812 L 353.632812 103.882812 C 325.054688 103.882812 301.882812 127.050781 301.882812 155.632812 Z M 301.882812 155.632812 " clip-rule="nonzero"/></clipPath><clipPath id="da68afd812"><path d="M 605 465 L 863 465 L 863 467 L 605 467 Z M 605 465 " clip-rule="nonzero"/></clipPath><clipPath id="86e436eaaa"><path d="M 301.882812 155.632812 L 301.882812 415.078125 C 301.882812 443.65625 325.054688 466.828125 353.632812 466.828125 L 1065.519531 466.828125 C 1094.097656 466.828125 1117.269531 443.65625 1117.269531 415.078125 L 1117.269531 155.632812 C 1117.269531 127.050781 1094.097656 103.882812 1065.519531 103.882812 L 353.632812 103.882812 C 325.054688 103.882812 301.882812 127.050781 301.882812 155.632812 Z M 301.882812 155.632812 " clip-rule="nonzero"/></clipPath><clipPath id="e37f56ae16"><path d="M 379 194 L 446 194 L 446 284 L 379 284 Z M 379 194 " clip-rule="nonzero"/></clipPath><clipPath id="d983c5deb4"><path d="M 301.882812 155.632812 L 301.882812 415.078125 C 301.882812 443.65625 325.054688 466.828125 353.632812 466.828125 L 1065.519531 466.828125 C 1094.097656 466.828125 1117.269531 443.65625 1117.269531 415.078125 L 1117.269531 155.632812 C 1117.269531 127.050781 1094.097656 103.882812 1065.519531 103.882812 L 353.632812 103.882812 C 325.054688 103.882812 301.882812 127.050781 301.882812 155.632812 Z M 301.882812 155.632812 " clip-rule="nonzero"/></clipPath><clipPath id="094f6176d4"><path d="M 455 195 L 513 195 L 513 283 L 455 283 Z M 455 195 " clip-rule="nonzero"/></clipPath><clipPath id="6373e16fa6"><path d="M 301.882812 155.632812 L 301.882812 415.078125 C 301.882812 443.65625 325.054688 466.828125 353.632812 466.828125 L 1065.519531 466.828125 C 1094.097656 466.828125 1117.269531 443.65625 1117.269531 415.078125 L 1117.269531 155.632812 C 1117.269531 127.050781 1094.097656 103.882812 1065.519531 103.882812 L 353.632812 103.882812 C 325.054688 103.882812 301.882812 127.050781 301.882812 155.632812 Z M 301.882812 155.632812 " clip-rule="nonzero"/></clipPath><clipPath id="cfd1825041"><path d="M 522 195 L 586 195 L 586 284 L 522 284 Z M 522 195 " clip-rule="nonzero"/></clipPath><clipPath id="9793e143c0"><path d="M 301.882812 155.632812 L 301.882812 415.078125 C 301.882812 443.65625 325.054688 466.828125 353.632812 466.828125 L 1065.519531 466.828125 C 1094.097656 466.828125 1117.269531 443.65625 1117.269531 415.078125 L 1117.269531 155.632812 C 1117.269531 127.050781 1094.097656 103.882812 1065.519531 103.882812 L 353.632812 103.882812 C 325.054688 103.882812 301.882812 127.050781 301.882812 155.632812 Z M 301.882812 155.632812 " clip-rule="nonzero"/></clipPath><clipPath id="81de4b2612"><path d="M 587 195 L 658 195 L 658 283 L 587 283 Z M 587 195 " clip-rule="nonzero"/></clipPath><clipPath id="1d89ab6f0b"><path d="M 301.882812 155.632812 L 301.882812 415.078125 C 301.882812 443.65625 325.054688 466.828125 353.632812 466.828125 L 1065.519531 466.828125 C 1094.097656 466.828125 1117.269531 443.65625 1117.269531 415.078125 L 1117.269531 155.632812 C 1117.269531 127.050781 1094.097656 103.882812 1065.519531 103.882812 L 353.632812 103.882812 C 325.054688 103.882812 301.882812 127.050781 301.882812 155.632812 Z M 301.882812 155.632812 " clip-rule="nonzero"/></clipPath><clipPath id="6d53c405c7"><path d="M 665 194 L 683 194 L 683 284 L 665 284 Z M 665 194 " clip-rule="nonzero"/></clipPath><clipPath id="2ed1999492"><path d="M 301.882812 155.632812 L 301.882812 415.078125 C 301.882812 443.65625 325.054688 466.828125 353.632812 466.828125 L 1065.519531 466.828125 C 1094.097656 466.828125 1117.269531 443.65625 1117.269531 415.078125 L 1117.269531 155.632812 C 1117.269531 127.050781 1094.097656 103.882812 1065.519531 103.882812 L 353.632812 103.882812 C 325.054688 103.882812 301.882812 127.050781 301.882812 155.632812 Z M 301.882812 155.632812 " clip-rule="nonzero"/></clipPath><clipPath id="3c683df4be"><path d="M 696 195 L 756 195 L 756 283 L 696 283 Z M 696 195 " clip-rule="nonzero"/></clipPath><clipPath id="5ae2b23c18"><path d="M 301.882812 155.632812 L 301.882812 415.078125 C 301.882812 443.65625 325.054688 466.828125 353.632812 466.828125 L 1065.519531 466.828125 C 1094.097656 466.828125 1117.269531 443.65625 1117.269531 415.078125 L 1117.269531 155.632812 C 1117.269531 127.050781 1094.097656 103.882812 1065.519531 103.882812 L 353.632812 103.882812 C 325.054688 103.882812 301.882812 127.050781 301.882812 155.632812 Z M 301.882812 155.632812 " clip-rule="nonzero"/></clipPath><clipPath id="0fc74fb3f0"><path d="M 767 194 L 785 194 L 785 284 L 767 284 Z M 767 194 " clip-rule="nonzero"/></clipPath><clipPath id="168d644f10"><path d="M 301.882812 155.632812 L 301.882812 415.078125 C 301.882812 443.65625 325.054688 466.828125 353.632812 466.828125 L 1065.519531 466.828125 C 1094.097656 466.828125 1117.269531 443.65625 1117.269531 415.078125 L 1117.269531 155.632812 C 1117.269531 127.050781 1094.097656 103.882812 1065.519531 103.882812 L 353.632812 103.882812 C 325.054688 103.882812 301.882812 127.050781 301.882812 155.632812 Z M 301.882812 155.632812 " clip-rule="nonzero"/></clipPath><clipPath id="91c22bbabf"><path d="M 797 194 L 864 194 L 864 284 L 797 284 Z M 797 194 " clip-rule="nonzero"/></clipPath><clipPath id="6d11dd9432"><path d="M 301.882812 155.632812 L 301.882812 415.078125 C 301.882812 443.65625 325.054688 466.828125 353.632812 466.828125 L 1065.519531 466.828125 C 1094.097656 466.828125 1117.269531 443.65625 1117.269531 415.078125 L 1117.269531 155.632812 C 1117.269531 127.050781 1094.097656 103.882812 1065.519531 103.882812 L 353.632812 103.882812 C 325.054688 103.882812 301.882812 127.050781 301.882812 155.632812 Z M 301.882812 155.632812 " clip-rule="nonzero"/></clipPath><clipPath id="7602c3f544"><path d="M 873 195 L 950 195 L 950 284 L 873 284 Z M 873 195 " clip-rule="nonzero"/></clipPath><clipPath id="4fa99df9ca"><path d="M 301.882812 155.632812 L 301.882812 415.078125 C 301.882812 443.65625 325.054688 466.828125 353.632812 466.828125 L 1065.519531 466.828125 C 1094.097656 466.828125 1117.269531 443.65625 1117.269531 415.078125 L 1117.269531 155.632812 C 1117.269531 127.050781 1094.097656 103.882812 1065.519531 103.882812 L 353.632812 103.882812 C 325.054688 103.882812 301.882812 127.050781 301.882812 155.632812 Z M 301.882812 155.632812 " clip-rule="nonzero"/></clipPath><clipPath id="96a06763f7"><path d="M 943 195 L 1013 195 L 1013 283 L 943 283 Z M 943 195 " clip-rule="nonzero"/></clipPath><clipPath id="9fdc3b0c08"><path d="M 301.882812 155.632812 L 301.882812 415.078125 C 301.882812 443.65625 325.054688 466.828125 353.632812 466.828125 L 1065.519531 466.828125 C 1094.097656 466.828125 1117.269531 443.65625 1117.269531 415.078125 L 1117.269531 155.632812 C 1117.269531 127.050781 1094.097656 103.882812 1065.519531 103.882812 L 353.632812 103.882812 C 325.054688 103.882812 301.882812 127.050781 301.882812 155.632812 Z M 301.882812 155.632812 " clip-rule="nonzero"/></clipPath><clipPath id="237bcf79c6"><path d="M 1022 195 L 1081 195 L 1081 283 L 1022 283 Z M 1022 195 " clip-rule="nonzero"/></clipPath><clipPath id="c9ca557a6f"><path d="M 301.882812 155.632812 L 301.882812 415.078125 C 301.882812 443.65625 325.054688 466.828125 353.632812 466.828125 L 1065.519531 466.828125 C 1094.097656 466.828125 1117.269531 443.65625 1117.269531 415.078125 L 1117.269531 155.632812 C 1117.269531 127.050781 1094.097656 103.882812 1065.519531 103.882812 L 353.632812 103.882812 C 325.054688 103.882812 301.882812 127.050781 301.882812 155.632812 Z M 301.882812 155.632812 " clip-rule="nonzero"/></clipPath><clipPath id="0ad3b58c54"><path d="M 383 342 L 1086 342 L 1086 361 L 383 361 Z M 383 342 " clip-rule="nonzero"/></clipPath><clipPath id="2f11433b6f"><path d="M 301.882812 155.632812 L 301.882812 415.078125 C 301.882812 443.65625 325.054688 466.828125 353.632812 466.828125 L 1065.519531 466.828125 C 1094.097656 466.828125 1117.269531 443.65625 1117.269531 415.078125 L 1117.269531 155.632812 C 1117.269531 127.050781 1094.097656 103.882812 1065.519531 103.882812 L 353.632812 103.882812 C 325.054688 103.882812 301.882812 127.050781 301.882812 155.632812 Z M 301.882812 155.632812 " clip-rule="nonzero"/></clipPath><clipPath id="2a987e2170"><path d="M 383 397 L 1086 397 L 1086 416 L 383 416 Z M 383 397 " clip-rule="nonzero"/></clipPath><clipPath id="53728d42c3"><path d="M 301.882812 155.632812 L 301.882812 415.078125 C 301.882812 443.65625 325.054688 466.828125 353.632812 466.828125 L 1065.519531 466.828125 C 1094.097656 466.828125 1117.269531 443.65625 1117.269531 415.078125 L 1117.269531 155.632812 C 1117.269531 127.050781 1094.097656 103.882812 1065.519531 103.882812 L 353.632812 103.882812 C 325.054688 103.882812 301.882812 127.050781 301.882812 155.632812 Z M 301.882812 155.632812 " clip-rule="nonzero"/></clipPath><clipPath id="ae00ab87ff"><path d="M 263.726562 43.378906 L 324.230469 43.378906 L 324.230469 103.882812 L 263.726562 103.882812 Z M 263.726562 43.378906 " clip-rule="nonzero"/></clipPath><clipPath id="9d8be1417b"><path d="M 293.980469 43.378906 C 277.273438 43.378906 263.726562 56.921875 263.726562 73.628906 C 263.726562 90.339844 277.273438 103.882812 293.980469 103.882812 C 310.6875 103.882812 324.230469 90.339844 324.230469 73.628906 C 324.230469 56.921875 310.6875 43.378906 293.980469 43.378906 Z M 293.980469 43.378906 " clip-rule="nonzero"/></clipPath><clipPath id="e0c3968712"><path d="M 1117.269531 569.570312 L 1177.769531 569.570312 L 1177.769531 630.074219 L 1117.269531 630.074219 Z M 1117.269531 569.570312 " clip-rule="nonzero"/></clipPath><clipPath id="d67c2e6915"><path d="M 1147.519531 569.570312 C 1130.8125 569.570312 1117.269531 583.117188 1117.269531 599.824219 C 1117.269531 616.53125 1130.8125 630.074219 1147.519531 630.074219 C 1164.226562 630.074219 1177.769531 616.53125 1177.769531 599.824219 C 1177.769531 583.117188 1164.226562 569.570312 1147.519531 569.570312 Z M 1147.519531 569.570312 " clip-rule="nonzero"/></clipPath><clipPath id="b1603ebe52"><path d="M 1117.269531 43.378906 L 1177.769531 43.378906 L 1177.769531 103.882812 L 1117.269531 103.882812 Z M 1117.269531 43.378906 " clip-rule="nonzero"/></clipPath><clipPath id="a46a319d65"><path d="M 1147.519531 43.378906 C 1130.8125 43.378906 1117.269531 56.921875 1117.269531 73.628906 C 1117.269531 90.339844 1130.8125 103.882812 1147.519531 103.882812 C 1164.226562 103.882812 1177.769531 90.339844 1177.769531 73.628906 C 1177.769531 56.921875 1164.226562 43.378906 1147.519531 43.378906 Z M 1147.519531 43.378906 " clip-rule="nonzero"/></clipPath><clipPath id="1a4acc6204"><path d="M 263.726562 569.570312 L 324.230469 569.570312 L 324.230469 630.074219 L 263.726562 630.074219 Z M 263.726562 569.570312 " clip-rule="nonzero"/></clipPath><clipPath id="094e94e762"><path d="M 293.980469 569.570312 C 277.273438 569.570312 263.726562 583.117188 263.726562 599.824219 C 263.726562 616.53125 277.273438 630.074219 293.980469 630.074219 C 310.6875 630.074219 324.230469 616.53125 324.230469 599.824219 C 324.230469 583.117188 310.6875 569.570312 293.980469 569.570312 Z M 293.980469 569.570312 " clip-rule="nonzero"/></clipPath><clipPath id="38ff40a484"><path d="M 720 632 L 835 632 L 835 793.316406 L 720 793.316406 Z M 720 632 " clip-rule="nonzero"/></clipPath><clipPath id="0424ee1e2c"><path d="M 607 632 L 722 632 L 722 793.316406 L 607 793.316406 Z M 607 632 " clip-rule="nonzero"/></clipPath><clipPath id="c5df31dc26"><path d="M 605 466.605469 L 836.929688 466.605469 L 836.929688 698 L 605 698 Z M 605 466.605469 " clip-rule="nonzero"/></clipPath></defs><g clip-path="url(#cf4c319939)"><g clip-path="url(#bb6c7d3426)"><path fill="url(#7cd30afc77)" d="M 229.199219 16.457031 L 229.199219 655.230469 L 1209.820312 655.230469 L 1209.820312 16.457031 Z M 229.199219 16.457031 " fill-rule="nonzero"/></g></g><g clip-path="url(#647db0af3a)"><g clip-path="url(#4b8fb06ac3)"><path fill="#ffffff" d="M 293.980469 73.628906 L 1146.984375 73.628906 L 1146.984375 599.824219 L 293.980469 599.824219 Z M 293.980469 73.628906 " fill-opacity="1" fill-rule="nonzero"/></g></g><g clip-path="url(#efe135910d)"><g clip-path="url(#6d6ccfce51)"><path fill="#677ccc" d="M 164.835938 6.976562 L 1292.40625 6.976562 L 1292.40625 728.570312 L 164.835938 728.570312 Z M 164.835938 6.976562 " fill-opacity="1" fill-rule="nonzero"/><path fill="#ffffff" d="M 1230.855469 155.304688 L 1230.855469 581.1875 C 1183.453125 581.1875 1145.023438 619.621094 1145.023438 667.019531 L 313.164062 667.019531 C 313.164062 619.621094 274.734375 581.1875 227.335938 581.1875 C 227.015625 581.1875 226.699219 581.1875 226.382812 581.195312 L 226.382812 155.300781 C 226.699219 155.304688 227.015625 155.304688 227.335938 155.304688 C 274.734375 155.304688 313.164062 116.875 313.164062 69.472656 C 313.164062 69.15625 313.164062 68.839844 313.160156 68.519531 L 1145.035156 68.519531 C 1145.03125 68.839844 1145.03125 69.15625 1145.03125 69.472656 C 1145.03125 116.875 1183.453125 155.304688 1230.855469 155.304688 Z M 1230.855469 155.304688 " fill-opacity="1" fill-rule="nonzero"/></g></g><g clip-path="url(#da68afd812)"><g clip-path="url(#86e436eaaa)"><path fill="#677ccc" d="M 862.617188 594.097656 C 862.617188 610.3125 842.472656 622.40625 836.625 636.515625 C 830.5625 651.136719 836.027344 673.878906 825.007812 684.894531 C 813.992188 695.914062 791.246094 690.453125 776.628906 696.511719 C 762.527344 702.359375 750.425781 722.503906 734.210938 722.503906 C 717.992188 722.503906 705.898438 702.359375 691.792969 696.511719 C 677.171875 690.449219 654.429688 695.914062 643.410156 684.894531 C 632.390625 673.878906 637.851562 651.136719 631.792969 636.515625 C 625.945312 622.414062 605.800781 610.3125 605.800781 594.097656 C 605.800781 577.878906 625.945312 565.785156 631.792969 551.679688 C 637.859375 537.058594 632.390625 514.316406 643.410156 503.296875 C 654.429688 492.28125 677.171875 497.738281 691.792969 491.679688 C 705.890625 485.832031 717.992188 465.6875 734.210938 465.6875 C 750.425781 465.6875 762.527344 485.832031 776.628906 491.679688 C 791.246094 497.746094 813.992188 492.28125 825.007812 503.296875 C 836.027344 514.316406 830.566406 537.058594 836.625 551.679688 C 842.480469 565.785156 862.617188 577.878906 862.617188 594.097656 Z M 862.617188 594.097656 " fill-opacity="1" fill-rule="nonzero"/></g></g><g clip-path="url(#e37f56ae16)"><g clip-path="url(#d983c5deb4)"><path fill="#4e88d3" d="M 444.3125 261.621094 C 445.371094 263.996094 445.414062 266.3125 444.433594 268.566406 C 443.453125 270.820312 441.890625 272.890625 439.761719 274.777344 C 437.632812 276.660156 435.191406 278.300781 432.449219 279.691406 C 429.703125 281.085938 427.097656 282.066406 424.644531 282.644531 C 421.9375 283.214844 419.089844 283.484375 416.101562 283.445312 C 413.105469 283.402344 410.117188 283.035156 407.128906 282.34375 C 404.132812 281.648438 401.230469 280.625 398.398438 279.265625 C 395.566406 277.917969 392.96875 276.257812 390.59375 274.285156 C 387.71875 271.910156 385.488281 269.058594 383.894531 265.742188 C 382.296875 262.421875 381.128906 258.878906 380.390625 255.109375 C 379.65625 251.339844 379.265625 247.550781 379.222656 243.738281 C 379.179688 239.925781 379.285156 236.34375 379.53125 232.980469 C 379.777344 229.945312 380.390625 226.792969 381.375 223.515625 C 382.355469 220.234375 383.726562 217.015625 385.488281 213.859375 C 387.25 210.707031 389.378906 207.773438 391.878906 205.074219 C 394.375 202.367188 397.308594 200.078125 400.664062 198.1875 C 403.207031 196.714844 406.050781 195.710938 409.207031 195.175781 C 412.363281 194.640625 415.558594 194.519531 418.796875 194.808594 C 422.03125 195.09375 425.105469 195.789062 428.015625 196.894531 C 430.925781 198 433.402344 199.492188 435.453125 201.378906 C 436.757812 202.523438 438.136719 204.121094 439.566406 206.171875 C 440.996094 208.222656 442.042969 210.308594 442.699219 212.4375 C 443.359375 214.566406 443.378906 216.554688 442.765625 218.402344 C 442.152344 220.242188 440.492188 221.5 437.785156 222.148438 C 436.636719 222.480469 435.609375 222.539062 434.707031 222.328125 C 433.804688 222.128906 432.988281 221.757812 432.246094 221.226562 C 431.507812 220.691406 430.808594 220.054688 430.152344 219.320312 C 429.496094 218.582031 428.882812 217.847656 428.3125 217.109375 C 426.347656 214.734375 424.050781 213.117188 421.421875 212.25 C 418.800781 211.390625 416.195312 211.1875 413.617188 211.636719 C 411.035156 212.085938 408.613281 213.152344 406.363281 214.835938 C 404.109375 216.515625 402.371094 218.667969 401.136719 221.289062 C 399.820312 224.078125 398.78125 227.132812 398 230.453125 C 397.222656 233.773438 396.789062 237.128906 396.707031 240.53125 C 396.628906 243.933594 396.933594 247.230469 397.632812 250.429688 C 398.328125 253.628906 399.539062 256.453125 401.257812 258.914062 C 402.566406 260.878906 404.1875 262.480469 406.117188 263.707031 C 408.042969 264.933594 410.109375 265.792969 412.324219 266.292969 C 414.535156 266.785156 416.773438 266.863281 419.027344 266.539062 C 421.277344 266.214844 423.472656 265.476562 425.605469 264.328125 C 426.261719 264.003906 426.976562 263.527344 427.753906 262.914062 C 428.535156 262.300781 429.328125 261.664062 430.152344 261.007812 C 430.96875 260.351562 431.8125 259.738281 432.671875 259.167969 C 433.53125 258.597656 434.457031 258.183594 435.4375 257.9375 C 436.910156 257.449219 438.527344 257.492188 440.296875 258.0625 C 442.078125 258.625 443.40625 259.816406 444.3125 261.621094 Z M 444.3125 261.621094 " fill-opacity="1" fill-rule="nonzero"/></g></g><g clip-path="url(#094f6176d4)"><g clip-path="url(#6373e16fa6)"><path fill="#4e88d3" d="M 471.847656 209.984375 L 471.601562 229.28125 L 476.519531 229.28125 C 479.875 229.203125 482.871094 229.160156 485.492188 229.160156 C 488.113281 229.160156 491.023438 229.203125 494.222656 229.28125 L 494.835938 229.28125 C 495.816406 229.28125 496.785156 229.304688 497.722656 229.339844 C 498.664062 229.382812 499.585938 229.398438 500.488281 229.398438 C 501.472656 229.476562 502.417969 229.621094 503.320312 229.832031 C 504.222656 230.035156 505.125 230.265625 506.027344 230.511719 C 507.421875 231 508.570312 231.738281 509.472656 232.71875 C 510.289062 233.789062 510.699219 234.972656 510.699219 236.285156 C 510.699219 236.699219 510.699219 237.167969 510.699219 237.699219 C 510.699219 238.234375 510.621094 238.703125 510.453125 239.117188 C 510.289062 240.019531 509.753906 240.835938 508.859375 241.578125 C 508.445312 242.15625 507.667969 242.558594 506.527344 242.804688 C 505.457031 243.136719 504.394531 243.339844 503.328125 243.417969 C 502.179688 243.664062 501.03125 243.789062 499.882812 243.789062 L 494.105469 243.789062 L 471.363281 243.910156 L 471.117188 268.011719 L 495.585938 268.257812 L 501.363281 268.257812 C 502.019531 268.257812 502.632812 268.257812 503.203125 268.257812 C 503.773438 268.257812 504.308594 268.300781 504.800781 268.378906 C 505.457031 268.546875 506.050781 268.644531 506.582031 268.691406 C 507.117188 268.734375 507.628906 268.832031 508.121094 269 C 509.101562 269.324219 509.925781 269.78125 510.582031 270.351562 C 511.398438 271.171875 511.933594 272.03125 512.179688 272.933594 C 512.257812 273.347656 512.324219 273.78125 512.367188 274.226562 C 512.410156 274.675781 512.386719 275.152344 512.308594 275.640625 C 512.308594 276.957031 511.898438 278.140625 511.082031 279.210938 C 510.097656 280.355469 508.953125 281.09375 507.636719 281.417969 C 505.917969 282.15625 504.027344 282.523438 501.984375 282.523438 C 501.082031 282.601562 500.144531 282.644531 499.152344 282.644531 C 498.164062 282.644531 497.226562 282.6875 496.324219 282.769531 L 495.585938 282.769531 C 489.199219 282.933594 482.554688 282.933594 475.667969 282.769531 C 474.027344 282.769531 472.714844 282.746094 471.730469 282.710938 C 470.75 282.667969 469.871094 282.652344 469.089844 282.652344 C 468.308594 282.652344 467.507812 282.652344 466.691406 282.652344 C 465.871094 282.652344 464.808594 282.652344 463.496094 282.652344 C 461.609375 282.820312 460.050781 282.488281 458.824219 281.671875 C 457.921875 281.101562 457.226562 280.320312 456.730469 279.332031 C 456.484375 279.085938 456.359375 278.839844 456.359375 278.59375 C 456.28125 278.429688 456.195312 278.304688 456.117188 278.226562 C 456.035156 278.148438 455.949219 278.023438 455.871094 277.859375 C 455.703125 277.449219 455.582031 277.019531 455.5 276.566406 C 455.421875 276.117188 455.378906 275.6875 455.378906 275.273438 C 455.300781 274.863281 455.234375 274.457031 455.191406 274.046875 C 455.148438 273.636719 455.089844 273.230469 455.003906 272.820312 L 455.003906 270.855469 C 455.003906 270.53125 455.023438 270.199219 455.070312 269.875 C 455.113281 269.546875 455.125 269.214844 455.125 268.890625 L 455.125 259.304688 L 455.371094 241.601562 L 455.371094 225.246094 C 455.371094 222.292969 455.394531 219.671875 455.4375 217.375 C 455.480469 215.082031 455.539062 212.582031 455.625 209.875 L 455.625 209.261719 C 455.703125 208.359375 455.769531 207.519531 455.8125 206.742188 C 455.855469 205.960938 455.878906 205.167969 455.878906 204.34375 C 455.957031 202.707031 456.410156 201.109375 457.226562 199.550781 C 457.550781 198.894531 457.90625 198.324219 458.273438 197.832031 C 458.640625 197.339844 459.15625 196.929688 459.8125 196.605469 C 461.039062 195.867188 462.308594 195.5 463.625 195.5 C 464.28125 195.5 464.773438 195.542969 465.097656 195.621094 L 465.097656 195.5 C 466.570312 195.5 467.761719 195.5 468.664062 195.5 C 469.566406 195.5 470.445312 195.5 471.304688 195.5 C 472.164062 195.5 473.089844 195.476562 474.070312 195.433594 C 475.054688 195.390625 476.410156 195.371094 478.128906 195.371094 C 481.40625 195.289062 484.519531 195.246094 487.472656 195.246094 C 490.425781 195.246094 493.449219 195.289062 496.570312 195.371094 L 497.058594 195.371094 C 497.960938 195.449219 498.902344 195.492188 499.890625 195.492188 C 500.871094 195.492188 501.816406 195.535156 502.71875 195.617188 C 503.625 195.617188 504.527344 195.714844 505.429688 195.925781 C 506.332031 196.128906 507.234375 196.394531 508.136719 196.726562 C 509.527344 197.140625 510.675781 197.832031 511.578125 198.8125 C 512.316406 199.960938 512.683594 201.109375 512.683594 202.257812 C 512.683594 202.75 512.683594 203.21875 512.683594 203.671875 C 512.683594 204.121094 512.605469 204.554688 512.4375 204.964844 C 512.359375 205.789062 511.859375 206.648438 510.964844 207.550781 C 510.632812 207.714844 510.289062 207.917969 509.917969 208.164062 C 509.550781 208.410156 509.117188 208.613281 508.625 208.777344 C 508.136719 208.945312 507.625 209.042969 507.089844 209.089844 C 506.554688 209.132812 506.042969 209.1875 505.550781 209.269531 C 504.894531 209.433594 504.300781 209.515625 503.769531 209.515625 C 503.234375 209.515625 502.640625 209.515625 501.984375 209.515625 L 496.453125 209.515625 L 471.863281 209.636719 L 471.863281 209.984375 Z M 471.847656 209.984375 " fill-opacity="1" fill-rule="nonzero"/></g></g><g clip-path="url(#cfd1825041)"><g clip-path="url(#9793e143c0)"><path fill="#4e88d3" d="M 585.9375 276.863281 C 586.019531 277.6875 585.9375 278.457031 585.695312 279.203125 C 585.527344 279.691406 585.304688 280.105469 585.015625 280.429688 C 584.726562 280.753906 584.378906 281.085938 583.96875 281.410156 C 583.230469 281.902344 582.328125 282.351562 581.261719 282.761719 C 580.601562 282.925781 579.96875 283.070312 579.355469 283.195312 C 578.742188 283.316406 578.105469 283.296875 577.449219 283.128906 C 576.132812 283.042969 574.984375 282.550781 574.003906 281.65625 C 572.609375 280.507812 571.460938 279.238281 570.558594 277.84375 C 570.148438 277.1875 569.699219 276.449219 569.210938 275.628906 C 568.71875 274.8125 568.265625 273.945312 567.859375 273.042969 L 554.214844 247.101562 C 553.558594 247.101562 552.898438 247.125 552.25 247.167969 C 551.59375 247.210938 550.9375 247.269531 550.285156 247.347656 C 548.566406 247.511719 546.945312 247.554688 545.425781 247.46875 C 543.910156 247.390625 542.328125 247.390625 540.691406 247.46875 L 538.351562 247.46875 L 538.351562 269.722656 C 538.351562 270.378906 538.328125 270.992188 538.285156 271.5625 C 538.242188 272.140625 538.222656 272.753906 538.222656 273.402344 C 538.222656 273.816406 538.199219 274.351562 538.164062 275 C 538.121094 275.65625 538.0625 276.269531 537.976562 276.839844 C 537.808594 277.742188 537.441406 278.667969 536.871094 279.605469 C 536.292969 280.550781 535.519531 281.347656 534.539062 282.003906 C 532.820312 283.066406 530.726562 283.351562 528.273438 282.863281 C 527.203125 282.617188 526.1875 282.207031 525.195312 281.636719 C 524.863281 281.390625 524.582031 281.078125 524.335938 280.710938 C 524.09375 280.34375 523.890625 279.953125 523.722656 279.542969 C 523.558594 279.128906 523.414062 278.703125 523.289062 278.25 C 523.167969 277.800781 523.023438 277.367188 522.855469 276.957031 C 522.613281 276.140625 522.488281 275.359375 522.488281 274.617188 L 522.488281 204.785156 C 522.488281 204.292969 522.511719 203.78125 522.554688 203.246094 C 522.597656 202.710938 522.65625 202.242188 522.742188 201.832031 C 522.820312 200.929688 523.109375 200.027344 523.601562 199.125 C 523.847656 198.140625 524.257812 197.441406 524.828125 197.03125 C 525.320312 196.539062 526.078125 196.105469 527.101562 195.738281 C 528.128906 195.371094 529.621094 195.226562 531.585938 195.304688 C 535.277344 195.382812 538.921875 195.429688 542.523438 195.429688 C 546.128906 195.429688 549.738281 195.507812 553.339844 195.671875 C 555.714844 195.839844 558.234375 196.105469 560.898438 196.476562 C 563.5625 196.84375 566.039062 197.476562 568.335938 198.378906 C 569.808594 198.957031 571.167969 199.527344 572.394531 200.097656 C 573.953125 201 575.179688 201.859375 576.082031 202.683594 C 578.949219 205.304688 581.125 208.460938 582.597656 212.148438 C 584.070312 215.839844 584.8125 219.570312 584.8125 223.339844 C 584.8125 227.765625 583.765625 231.824219 581.679688 235.511719 C 579.59375 239.203125 576.25 241.945312 571.65625 243.75 C 571.492188 243.917969 571.269531 244.019531 570.980469 244.0625 C 570.691406 244.105469 570.464844 244.164062 570.300781 244.242188 L 581.613281 266.984375 L 582.71875 268.949219 C 582.886719 269.273438 583.085938 269.648438 583.332031 270.054688 C 583.578125 270.464844 583.78125 270.878906 583.945312 271.28125 C 584.191406 271.691406 584.414062 272.140625 584.625 272.632812 C 584.828125 273.121094 585.058594 273.578125 585.304688 273.980469 C 585.570312 275.1875 585.773438 276.125 585.9375 276.863281 Z M 555.203125 233.09375 C 556.675781 233.09375 558.089844 232.828125 559.441406 232.292969 C 560.792969 231.757812 562.027344 231.042969 563.128906 230.140625 C 564.234375 229.238281 565.160156 228.199219 565.894531 227.007812 C 566.632812 225.824219 567.042969 224.53125 567.125 223.136719 C 567.449219 219.039062 566.386719 215.992188 563.925781 213.976562 C 561.464844 211.96875 558.226562 210.886719 554.214844 210.71875 C 551.839844 210.554688 549.230469 210.472656 546.410156 210.472656 C 543.585938 210.472656 540.894531 210.472656 538.359375 210.472656 C 538.4375 213.839844 538.460938 217.253906 538.421875 220.742188 C 538.378906 224.226562 538.359375 228.34375 538.359375 233.09375 Z M 555.203125 233.09375 " fill-opacity="1" fill-rule="nonzero"/></g></g><g clip-path="url(#81de4b2612)"><g clip-path="url(#1d89ab6f0b)"><path fill="#4e88d3" d="M 655.769531 199.046875 C 656.671875 200.113281 657.121094 201.21875 657.121094 202.367188 C 657.121094 202.855469 657.097656 203.371094 657.054688 203.902344 C 657.011719 204.4375 656.957031 204.90625 656.867188 205.320312 C 656.621094 206.222656 656.089844 207.082031 655.273438 207.902344 C 654.617188 208.394531 653.714844 208.761719 652.566406 209.007812 C 651.988281 209.175781 651.417969 209.296875 650.847656 209.378906 C 650.269531 209.457031 649.65625 209.578125 649.003906 209.746094 C 648.429688 209.824219 647.859375 209.867188 647.289062 209.867188 C 646.710938 209.867188 646.097656 209.867188 645.445312 209.867188 L 639.179688 209.867188 C 637.707031 209.949219 636.246094 209.992188 634.820312 209.992188 C 633.382812 209.992188 631.964844 209.992188 630.582031 209.992188 C 630.660156 212.53125 630.703125 215.253906 630.703125 218.164062 C 630.703125 221.074219 630.679688 224.453125 630.644531 228.308594 C 630.601562 232.164062 630.566406 236.625 630.523438 241.707031 C 630.480469 246.792969 630.457031 252.691406 630.457031 259.410156 L 630.457031 268.753906 C 630.457031 269.578125 630.5 270.191406 630.582031 270.59375 C 630.582031 270.921875 630.582031 271.230469 630.582031 271.519531 C 630.582031 271.808594 630.535156 272.15625 630.457031 272.566406 C 630.292969 273.304688 630.167969 274.164062 630.089844 275.152344 C 630.089844 275.5625 630.046875 275.953125 629.964844 276.320312 C 629.886719 276.6875 629.765625 277.078125 629.597656 277.492188 C 629.273438 277.824219 629.105469 278.0625 629.105469 278.226562 L 628.738281 278.964844 C 628.328125 279.785156 627.546875 280.558594 626.398438 281.304688 C 624.59375 282.207031 622.585938 282.40625 620.378906 281.917969 C 618.984375 281.75 617.917969 281.382812 617.179688 280.8125 C 616.445312 280.074219 615.910156 279.339844 615.585938 278.59375 C 615.09375 277.691406 614.804688 276.832031 614.726562 276.011719 C 614.480469 275.273438 614.355469 274.496094 614.355469 273.671875 L 614.355469 210.480469 C 613.867188 210.480469 612.839844 210.480469 611.28125 210.480469 C 609.722656 210.480469 608.0625 210.460938 606.300781 210.425781 C 604.539062 210.378906 602.878906 210.324219 601.316406 210.234375 C 599.757812 210.15625 598.695312 210.070312 598.117188 209.992188 C 597.628906 209.910156 596.871094 209.789062 595.84375 209.621094 C 594.820312 209.457031 593.980469 209.296875 593.324219 209.132812 C 591.605469 208.640625 590.25 207.859375 589.265625 206.792969 C 588.363281 205.730469 587.917969 204.539062 587.917969 203.226562 C 587.917969 202.734375 587.917969 202.242188 587.917969 201.753906 C 587.917969 201.261719 587.996094 200.8125 588.164062 200.402344 C 588.40625 199.421875 589.066406 198.597656 590.125 197.941406 C 590.453125 197.695312 590.964844 197.382812 591.664062 197.015625 C 592.355469 196.648438 593.035156 196.382812 593.691406 196.214844 C 594.675781 195.890625 595.910156 195.644531 597.382812 195.476562 C 598.039062 195.398438 598.6875 195.355469 599.347656 195.355469 C 600.003906 195.355469 600.695312 195.355469 601.433594 195.355469 C 604.300781 195.355469 607.027344 195.355469 609.605469 195.355469 C 612.191406 195.355469 614.914062 195.3125 617.777344 195.234375 C 622.53125 195.152344 627.265625 195.132812 631.980469 195.175781 C 636.695312 195.21875 641.386719 195.320312 646.058594 195.484375 C 647.121094 195.566406 648.148438 195.6875 649.136719 195.855469 C 650.117188 196.019531 651.097656 196.300781 652.089844 196.714844 C 652.824219 196.957031 653.519531 197.269531 654.175781 197.636719 C 654.824219 198 655.359375 198.46875 655.769531 199.046875 Z M 655.769531 199.046875 " fill-opacity="1" fill-rule="nonzero"/></g></g><g clip-path="url(#6d53c405c7)"><g clip-path="url(#2ed1999492)"><path fill="#4e88d3" d="M 665.851562 269.238281 L 665.972656 259.527344 L 666.09375 241.457031 C 666.175781 238.835938 666.21875 236.128906 666.21875 233.339844 C 666.21875 230.554688 666.21875 227.6875 666.21875 224.734375 C 666.21875 221.78125 666.21875 219.160156 666.21875 216.863281 C 666.21875 214.566406 666.296875 211.992188 666.464844 209.117188 L 666.464844 208.625 C 666.542969 207.808594 666.609375 206.964844 666.652344 206.105469 C 666.695312 205.246094 666.710938 204.367188 666.710938 203.464844 C 666.789062 201.992188 667.242188 200.386719 668.058594 198.667969 C 668.628906 197.523438 669.488281 196.539062 670.644531 195.714844 C 671.953125 195.058594 673.230469 194.734375 674.457031 194.734375 C 675.113281 194.734375 675.707031 194.757812 676.238281 194.800781 C 676.773438 194.84375 677.285156 194.902344 677.777344 194.980469 C 678.839844 195.144531 679.785156 195.636719 680.609375 196.453125 C 681.097656 196.863281 681.546875 197.523438 681.957031 198.417969 C 682.125 198.90625 682.269531 199.382812 682.390625 199.832031 C 682.515625 200.28125 682.613281 200.757812 682.703125 201.246094 C 682.78125 201.816406 682.847656 202.351562 682.890625 202.84375 C 682.933594 203.332031 682.953125 203.824219 682.953125 204.316406 C 682.953125 204.886719 682.933594 205.40625 682.890625 205.855469 C 682.847656 206.308594 682.824219 206.777344 682.824219 207.269531 L 682.824219 209.355469 L 682.089844 273.160156 L 682.089844 274.386719 C 682.089844 274.632812 682.066406 274.941406 682.023438 275.308594 C 681.980469 275.679688 681.921875 276.113281 681.835938 276.601562 C 681.667969 277.015625 681.523438 277.449219 681.402344 277.894531 C 681.28125 278.34375 681.136719 278.820312 680.96875 279.308594 C 680.722656 279.722656 680.457031 280.113281 680.167969 280.480469 C 679.878906 280.847656 679.53125 281.203125 679.121094 281.527344 C 678.464844 282.183594 677.402344 282.632812 675.921875 282.875 C 673.707031 283.367188 671.617188 283.164062 669.65625 282.261719 C 668.671875 281.605469 667.972656 280.789062 667.570312 279.800781 C 667.324219 279.554688 667.199219 279.308594 667.199219 279.066406 C 667.121094 278.898438 667.035156 278.777344 666.953125 278.695312 C 666.875 278.617188 666.789062 278.496094 666.710938 278.328125 C 666.542969 277.917969 666.421875 277.492188 666.339844 277.035156 C 666.261719 276.589844 666.21875 276.113281 666.21875 275.621094 C 666.140625 275.210938 666.074219 274.804688 666.03125 274.394531 C 665.988281 273.980469 665.929688 273.578125 665.84375 273.164062 C 665.761719 272.507812 665.761719 271.816406 665.84375 271.078125 L 665.84375 269.238281 Z M 665.851562 269.238281 " fill-opacity="1" fill-rule="nonzero"/></g></g><g clip-path="url(#3c683df4be)"><g clip-path="url(#5ae2b23c18)"><path fill="#4e88d3" d="M 753.875 198.921875 C 754.613281 199.902344 755.0625 201.050781 755.226562 202.367188 C 755.226562 202.855469 755.207031 203.332031 755.160156 203.78125 C 755.117188 204.230469 755.0625 204.664062 754.972656 205.074219 C 754.894531 205.976562 754.359375 206.835938 753.378906 207.660156 C 752.800781 208.070312 752.066406 208.480469 751.167969 208.886719 C 750.679688 209.050781 750.164062 209.152344 749.632812 209.195312 C 749.097656 209.238281 748.503906 209.296875 747.847656 209.382812 C 747.355469 209.550781 746.824219 209.628906 746.253906 209.628906 C 745.675781 209.628906 745.105469 209.628906 744.535156 209.628906 L 739.003906 209.628906 L 713.308594 209.753906 L 713.308594 210.121094 L 713.183594 230.15625 C 713.839844 230.15625 714.554688 230.15625 715.335938 230.15625 C 716.117188 230.15625 717.078125 230.113281 718.222656 230.035156 C 721.503906 230.035156 724.433594 230.035156 727.011719 230.035156 C 729.597656 230.035156 732.441406 230.078125 735.550781 230.15625 L 736.289062 230.15625 C 737.191406 230.15625 738.109375 230.179688 739.054688 230.222656 C 739.992188 230.265625 740.960938 230.285156 741.941406 230.285156 C 742.84375 230.367188 743.746094 230.464844 744.648438 230.597656 C 745.550781 230.71875 746.453125 230.941406 747.355469 231.273438 C 748.832031 231.765625 749.898438 232.546875 750.554688 233.613281 C 751.457031 234.683594 751.90625 235.789062 751.90625 236.9375 C 751.90625 237.425781 751.90625 237.902344 751.90625 238.351562 C 751.90625 238.796875 751.828125 239.273438 751.660156 239.765625 C 751.582031 240.421875 751.046875 241.238281 750.066406 242.226562 C 749.40625 242.804688 748.628906 243.175781 747.726562 243.332031 C 747.3125 243.5 746.84375 243.644531 746.308594 243.765625 C 745.777344 243.890625 745.21875 243.988281 744.648438 244.078125 C 744.070312 244.15625 743.523438 244.222656 742.988281 244.257812 C 742.453125 244.300781 741.863281 244.320312 741.207031 244.320312 L 735.550781 244.320312 L 712.933594 244.445312 L 712.5625 272.964844 L 712.5625 273.945312 C 712.5625 274.355469 712.542969 274.746094 712.5 275.117188 C 712.457031 275.484375 712.398438 275.875 712.3125 276.285156 C 712.144531 276.695312 712 277.121094 711.878906 277.578125 C 711.753906 278.023438 711.609375 278.457031 711.445312 278.871094 C 710.867188 280.019531 710.339844 280.796875 709.847656 281.210938 C 708.945312 281.867188 707.84375 282.3125 706.527344 282.558594 C 704.320312 283.050781 702.226562 282.804688 700.261719 281.824219 C 699.847656 281.578125 699.460938 281.265625 699.089844 280.898438 C 698.722656 280.53125 698.414062 280.0625 698.167969 279.484375 C 698 279.160156 697.921875 278.914062 697.921875 278.746094 L 697.554688 278.011719 C 697.308594 277.597656 697.140625 277.171875 697.0625 276.71875 C 696.984375 276.269531 696.894531 275.835938 696.816406 275.425781 C 696.816406 275.015625 696.796875 274.609375 696.757812 274.199219 C 696.714844 273.785156 696.65625 273.382812 696.570312 272.972656 C 696.492188 272.3125 696.492188 271.664062 696.570312 271.007812 L 696.570312 269.042969 L 696.695312 259.453125 L 696.816406 241.75 C 696.894531 239.128906 696.941406 236.464844 696.941406 233.757812 C 696.941406 231.050781 696.941406 228.273438 696.941406 225.398438 C 696.859375 222.445312 696.839844 219.824219 696.882812 217.527344 C 696.925781 215.230469 697.027344 212.734375 697.191406 210.027344 L 697.191406 209.414062 C 697.273438 208.511719 697.316406 207.671875 697.316406 206.894531 C 697.316406 206.113281 697.394531 205.320312 697.558594 204.496094 C 697.726562 202.691406 698.132812 201.09375 698.789062 199.703125 C 699.359375 198.308594 700.179688 197.328125 701.25 196.75 C 702.476562 196.011719 703.792969 195.644531 705.183594 195.644531 C 705.84375 195.644531 706.367188 195.6875 706.78125 195.765625 L 706.78125 195.644531 C 708.253906 195.644531 709.445312 195.644531 710.347656 195.644531 C 711.25 195.644531 712.109375 195.644531 712.933594 195.644531 C 713.746094 195.644531 714.648438 195.621094 715.640625 195.585938 C 716.621094 195.542969 717.933594 195.523438 719.574219 195.523438 C 726.128906 195.441406 732.605469 195.441406 738.996094 195.523438 L 739.609375 195.523438 C 740.511719 195.601562 741.429688 195.644531 742.375 195.644531 C 743.3125 195.644531 744.28125 195.6875 745.261719 195.765625 C 746.164062 195.765625 747.066406 195.867188 747.972656 196.078125 C 748.875 196.285156 749.777344 196.546875 750.679688 196.878906 C 752.070312 197.238281 753.140625 197.933594 753.875 198.921875 Z M 753.875 198.921875 " fill-opacity="1" fill-rule="nonzero"/></g></g><g clip-path="url(#0fc74fb3f0)"><g clip-path="url(#168d644f10)"><path fill="#4e88d3" d="M 767.15625 269.238281 L 767.277344 259.527344 L 767.398438 241.457031 C 767.480469 238.835938 767.523438 236.128906 767.523438 233.339844 C 767.523438 230.554688 767.523438 227.6875 767.523438 224.734375 C 767.523438 221.78125 767.523438 219.160156 767.523438 216.863281 C 767.523438 214.566406 767.601562 211.992188 767.769531 209.117188 L 767.769531 208.625 C 767.847656 207.808594 767.914062 206.964844 767.957031 206.105469 C 768 205.246094 768.015625 204.367188 768.015625 203.464844 C 768.09375 201.992188 768.546875 200.386719 769.363281 198.667969 C 769.933594 197.523438 770.792969 196.539062 771.949219 195.714844 C 773.253906 195.058594 774.535156 194.734375 775.761719 194.734375 C 776.417969 194.734375 777.011719 194.757812 777.542969 194.800781 C 778.078125 194.84375 778.589844 194.902344 779.082031 194.980469 C 780.144531 195.144531 781.089844 195.636719 781.914062 196.453125 C 782.402344 196.863281 782.851562 197.523438 783.261719 198.417969 C 783.429688 198.90625 783.574219 199.382812 783.695312 199.832031 C 783.820312 200.28125 783.917969 200.757812 784.007812 201.246094 C 784.085938 201.816406 784.152344 202.351562 784.195312 202.84375 C 784.238281 203.332031 784.25 203.824219 784.25 204.316406 C 784.25 204.886719 784.230469 205.40625 784.195312 205.855469 C 784.152344 206.308594 784.128906 206.777344 784.128906 207.269531 L 784.128906 209.355469 L 783.390625 273.160156 L 783.390625 274.386719 C 783.390625 274.632812 783.371094 274.941406 783.335938 275.308594 C 783.292969 275.679688 783.234375 276.113281 783.148438 276.601562 C 782.980469 277.015625 782.835938 277.449219 782.714844 277.894531 C 782.589844 278.34375 782.445312 278.820312 782.28125 279.308594 C 782.035156 279.722656 781.769531 280.113281 781.480469 280.480469 C 781.191406 280.847656 780.84375 281.203125 780.433594 281.527344 C 779.773438 282.183594 778.714844 282.632812 777.234375 282.875 C 775.015625 283.367188 772.929688 283.164062 770.96875 282.261719 C 769.984375 281.605469 769.285156 280.789062 768.878906 279.800781 C 768.636719 279.554688 768.511719 279.308594 768.511719 279.066406 C 768.433594 278.898438 768.347656 278.777344 768.265625 278.695312 C 768.1875 278.617188 768.101562 278.496094 768.019531 278.328125 C 767.855469 277.917969 767.730469 277.492188 767.652344 277.035156 C 767.574219 276.589844 767.53125 276.113281 767.53125 275.621094 C 767.449219 275.210938 767.386719 274.804688 767.34375 274.394531 C 767.300781 273.980469 767.242188 273.578125 767.15625 273.164062 C 767.074219 272.507812 767.074219 271.816406 767.15625 271.078125 Z M 767.15625 269.238281 " fill-opacity="1" fill-rule="nonzero"/></g></g><g clip-path="url(#91c22bbabf)"><g clip-path="url(#6d11dd9432)"><path fill="#4e88d3" d="M 863.042969 261.621094 C 864.105469 263.996094 864.148438 266.3125 863.167969 268.566406 C 862.183594 270.820312 860.625 272.890625 858.496094 274.777344 C 856.367188 276.660156 853.925781 278.300781 851.179688 279.691406 C 848.4375 281.085938 845.832031 282.066406 843.375 282.644531 C 840.667969 283.214844 837.824219 283.484375 834.835938 283.445312 C 831.839844 283.402344 828.851562 283.035156 825.859375 282.34375 C 822.863281 281.648438 819.960938 280.625 817.132812 279.265625 C 814.300781 277.917969 811.703125 276.257812 809.328125 274.285156 C 806.453125 271.910156 804.222656 269.058594 802.625 265.742188 C 801.03125 262.421875 799.863281 258.878906 799.125 255.109375 C 798.386719 251.339844 798 247.550781 797.957031 243.738281 C 797.910156 239.925781 798.019531 236.34375 798.265625 232.980469 C 798.511719 229.945312 799.125 226.792969 800.105469 223.515625 C 801.089844 220.234375 802.460938 217.015625 804.222656 213.859375 C 805.984375 210.707031 808.113281 207.773438 810.613281 205.074219 C 813.109375 202.367188 816.042969 200.078125 819.398438 198.1875 C 821.941406 196.714844 824.785156 195.710938 827.941406 195.175781 C 831.09375 194.640625 834.292969 194.519531 837.527344 194.808594 C 840.761719 195.09375 843.839844 195.789062 846.75 196.894531 C 849.65625 198 852.132812 199.492188 854.183594 201.378906 C 855.492188 202.523438 856.871094 204.121094 858.300781 206.171875 C 859.730469 208.222656 860.777344 210.308594 861.433594 212.4375 C 862.089844 214.566406 862.113281 216.554688 861.492188 218.402344 C 860.878906 220.242188 859.21875 221.5 856.507812 222.148438 C 855.363281 222.480469 854.335938 222.539062 853.433594 222.328125 C 852.53125 222.128906 851.714844 221.757812 850.972656 221.226562 C 850.234375 220.691406 849.535156 220.054688 848.878906 219.320312 C 848.222656 218.582031 847.605469 217.847656 847.035156 217.109375 C 845.074219 214.734375 842.777344 213.117188 840.148438 212.25 C 837.527344 211.390625 834.921875 211.1875 832.34375 211.636719 C 829.757812 212.085938 827.339844 213.152344 825.089844 214.835938 C 822.835938 216.515625 821.09375 218.667969 819.859375 221.289062 C 818.546875 224.078125 817.507812 227.132812 816.726562 230.453125 C 815.949219 233.773438 815.515625 237.128906 815.433594 240.53125 C 815.355469 243.933594 815.660156 247.230469 816.359375 250.429688 C 817.050781 253.628906 818.265625 256.453125 819.984375 258.914062 C 821.289062 260.878906 822.914062 262.480469 824.84375 263.707031 C 826.769531 264.933594 828.835938 265.792969 831.050781 266.292969 C 833.261719 266.785156 835.5 266.863281 837.75 266.539062 C 840.003906 266.214844 842.199219 265.476562 844.328125 264.328125 C 844.988281 264.003906 845.703125 263.527344 846.480469 262.914062 C 847.261719 262.300781 848.054688 261.664062 848.878906 261.007812 C 849.695312 260.351562 850.539062 259.738281 851.398438 259.167969 C 852.257812 258.597656 853.179688 258.183594 854.164062 257.9375 C 855.636719 257.449219 857.253906 257.492188 859.023438 258.0625 C 860.8125 258.625 862.140625 259.816406 863.042969 261.621094 Z M 863.042969 261.621094 " fill-opacity="1" fill-rule="nonzero"/></g></g><g clip-path="url(#7602c3f544)"><g clip-path="url(#4fa99df9ca)"><path fill="#4e88d3" d="M 949.597656 273.910156 C 949.675781 274.402344 949.742188 274.878906 949.785156 275.324219 C 949.828125 275.78125 949.84375 276.292969 949.84375 276.863281 C 949.84375 277.84375 949.554688 278.746094 948.984375 279.570312 C 948.738281 279.980469 948.40625 280.371094 948.003906 280.738281 C 947.589844 281.109375 947.097656 281.417969 946.527344 281.664062 C 944.480469 282.8125 942.304688 283.222656 940.015625 282.890625 C 938.867188 282.558594 937.84375 282.03125 936.941406 281.296875 C 936.773438 281.128906 936.652344 281.027344 936.574219 280.984375 C 936.492188 280.941406 936.40625 280.839844 936.328125 280.675781 C 936.246094 280.59375 936.160156 280.496094 936.082031 280.363281 C 936.003906 280.242188 935.878906 280.140625 935.714844 280.054688 C 935.300781 279.640625 934.976562 279.253906 934.730469 278.882812 C 934.484375 278.515625 934.242188 278.125 933.996094 277.714844 C 933.828125 277.304688 933.648438 276.914062 933.4375 276.546875 C 933.238281 276.175781 933.007812 275.785156 932.761719 275.375 C 932.59375 275.050781 932.429688 274.738281 932.269531 274.449219 C 932.105469 274.164062 931.980469 273.859375 931.902344 273.527344 C 931.570312 272.789062 931.367188 272.132812 931.289062 271.5625 L 928.703125 265.542969 C 923.050781 265.542969 917.410156 265.5625 911.800781 265.605469 C 906.183594 265.648438 900.550781 265.628906 894.898438 265.542969 L 892.3125 271.5625 C 892.148438 271.886719 892.046875 272.21875 892.003906 272.546875 C 891.960938 272.871094 891.859375 273.203125 891.691406 273.527344 C 891.527344 273.851562 891.382812 274.164062 891.261719 274.449219 C 891.136719 274.738281 890.992188 275.042969 890.828125 275.375 C 890.582031 275.785156 890.355469 276.175781 890.148438 276.546875 C 889.945312 276.914062 889.714844 277.304688 889.46875 277.714844 C 889.304688 278.125 889.101562 278.515625 888.855469 278.882812 C 888.609375 279.253906 888.277344 279.640625 887.875 280.054688 C 887.707031 280.140625 887.585938 280.242188 887.503906 280.363281 C 887.425781 280.488281 887.339844 280.589844 887.261719 280.675781 C 887.179688 280.839844 887.09375 280.941406 887.015625 280.984375 C 886.933594 281.027344 886.8125 281.128906 886.644531 281.296875 C 885.742188 282.03125 884.71875 282.566406 883.570312 282.890625 C 881.273438 283.214844 879.101562 282.8125 877.058594 281.664062 C 876.480469 281.417969 875.988281 281.109375 875.585938 280.738281 C 875.171875 280.371094 874.847656 279.980469 874.601562 279.570312 C 874.027344 278.753906 873.742188 277.851562 873.742188 276.863281 C 873.742188 276.292969 873.765625 275.78125 873.808594 275.324219 C 873.851562 274.878906 873.910156 274.402344 873.996094 273.910156 C 874.164062 273.171875 874.363281 272.4375 874.609375 271.699219 L 874.980469 270.59375 L 900.550781 207.652344 L 901.289062 205.6875 C 901.453125 205.195312 901.65625 204.75 901.902344 204.335938 C 902.148438 203.925781 902.351562 203.433594 902.515625 202.863281 C 902.925781 201.804688 903.375 200.855469 903.867188 200.035156 C 904.113281 199.542969 904.398438 199.09375 904.726562 198.683594 C 905.050781 198.273438 905.382812 197.867188 905.707031 197.457031 C 906.199219 196.800781 906.890625 196.273438 907.792969 195.859375 C 908.941406 195.449219 910.269531 195.246094 911.785156 195.246094 C 913.300781 195.246094 914.632812 195.449219 915.777344 195.859375 C 916.683594 196.273438 917.375 196.808594 917.871094 197.457031 C 918.445312 198.191406 919.058594 199.050781 919.714844 200.042969 C 920.207031 200.863281 920.652344 201.804688 921.0625 202.871094 C 921.230469 203.441406 921.433594 203.941406 921.679688 204.34375 C 921.921875 204.757812 922.125 205.203125 922.292969 205.695312 L 923.027344 207.660156 L 948.601562 270.601562 L 948.96875 271.707031 C 949.230469 272.4375 949.429688 273.171875 949.597656 273.910156 Z M 920.457031 243.792969 C 919.390625 241.417969 918.304688 238.957031 917.203125 236.414062 C 916.097656 233.875 914.925781 231.296875 913.699219 228.667969 C 913.367188 227.933594 913.042969 227.175781 912.71875 226.394531 C 912.394531 225.613281 912.0625 224.855469 911.734375 224.121094 C 911.492188 224.855469 911.203125 225.613281 910.875 226.394531 C 910.550781 227.175781 910.21875 227.933594 909.894531 228.667969 C 908.667969 231.289062 907.496094 233.875 906.394531 236.414062 C 905.289062 238.957031 904.199219 241.417969 903.136719 243.792969 L 900.925781 249.203125 L 922.6875 249.203125 Z M 920.457031 243.792969 " fill-opacity="1" fill-rule="nonzero"/></g></g><g clip-path="url(#96a06763f7)"><g clip-path="url(#9fdc3b0c08)"><path fill="#4e88d3" d="M 1011.558594 199.046875 C 1012.460938 200.113281 1012.910156 201.21875 1012.910156 202.367188 C 1012.910156 202.855469 1012.886719 203.371094 1012.84375 203.902344 C 1012.800781 204.4375 1012.742188 204.90625 1012.65625 205.320312 C 1012.410156 206.222656 1011.878906 207.082031 1011.0625 207.902344 C 1010.40625 208.394531 1009.503906 208.761719 1008.355469 209.007812 C 1007.777344 209.175781 1007.207031 209.296875 1006.636719 209.378906 C 1006.058594 209.457031 1005.445312 209.578125 1004.792969 209.746094 C 1004.21875 209.824219 1003.648438 209.867188 1003.078125 209.867188 C 1002.5 209.867188 1001.886719 209.867188 1001.234375 209.867188 L 994.96875 209.867188 C 993.496094 209.949219 992.035156 209.992188 990.605469 209.992188 C 989.171875 209.992188 987.753906 209.992188 986.371094 209.992188 C 986.449219 212.53125 986.492188 215.253906 986.492188 218.164062 C 986.492188 221.074219 986.46875 224.453125 986.433594 228.308594 C 986.390625 232.164062 986.355469 236.625 986.3125 241.707031 C 986.269531 246.792969 986.246094 252.691406 986.246094 259.410156 L 986.246094 268.753906 C 986.246094 269.578125 986.289062 270.191406 986.371094 270.59375 C 986.371094 270.921875 986.371094 271.230469 986.371094 271.519531 C 986.371094 271.808594 986.324219 272.15625 986.246094 272.566406 C 986.082031 273.304688 985.957031 274.164062 985.878906 275.152344 C 985.878906 275.5625 985.835938 275.953125 985.753906 276.320312 C 985.675781 276.6875 985.554688 277.078125 985.386719 277.492188 C 985.0625 277.824219 984.894531 278.0625 984.894531 278.226562 L 984.527344 278.964844 C 984.117188 279.785156 983.335938 280.558594 982.1875 281.304688 C 980.382812 282.207031 978.375 282.40625 976.167969 281.917969 C 974.773438 281.75 973.707031 281.382812 972.96875 280.8125 C 972.230469 280.074219 971.699219 279.339844 971.375 278.59375 C 970.882812 277.691406 970.59375 276.832031 970.515625 276.011719 C 970.269531 275.273438 970.144531 274.496094 970.144531 273.671875 L 970.144531 210.480469 C 969.65625 210.480469 968.628906 210.480469 967.070312 210.480469 C 965.511719 210.480469 963.851562 210.460938 962.089844 210.425781 C 960.328125 210.378906 958.664062 210.324219 957.105469 210.234375 C 955.546875 210.15625 954.484375 210.070312 953.90625 209.992188 C 953.417969 209.910156 952.660156 209.789062 951.632812 209.621094 C 950.609375 209.457031 949.769531 209.296875 949.113281 209.132812 C 947.394531 208.640625 946.039062 207.859375 945.054688 206.792969 C 944.152344 205.730469 943.707031 204.539062 943.707031 203.226562 C 943.707031 202.734375 943.707031 202.242188 943.707031 201.753906 C 943.707031 201.261719 943.785156 200.8125 943.953125 200.402344 C 944.195312 199.421875 944.855469 198.597656 945.914062 197.941406 C 946.238281 197.695312 946.753906 197.382812 947.453125 197.015625 C 948.144531 196.648438 948.824219 196.382812 949.480469 196.214844 C 950.464844 195.890625 951.699219 195.644531 953.171875 195.476562 C 953.828125 195.398438 954.476562 195.355469 955.136719 195.355469 C 955.792969 195.355469 956.484375 195.355469 957.222656 195.355469 C 960.089844 195.355469 962.816406 195.355469 965.394531 195.355469 C 967.972656 195.355469 970.703125 195.3125 973.566406 195.234375 C 978.320312 195.152344 983.054688 195.132812 987.769531 195.175781 C 992.484375 195.21875 997.175781 195.320312 1001.847656 195.484375 C 1002.910156 195.566406 1003.933594 195.6875 1004.925781 195.855469 C 1005.90625 196.019531 1006.886719 196.300781 1007.878906 196.714844 C 1008.613281 196.957031 1009.308594 197.269531 1009.964844 197.636719 C 1010.613281 198 1011.148438 198.46875 1011.558594 199.046875 Z M 1011.558594 199.046875 " fill-opacity="1" fill-rule="nonzero"/></g></g><g clip-path="url(#237bcf79c6)"><g clip-path="url(#c9ca557a6f)"><path fill="#4e88d3" d="M 1039.589844 209.984375 L 1039.34375 229.28125 L 1044.257812 229.28125 C 1047.617188 229.203125 1050.613281 229.160156 1053.234375 229.160156 C 1055.855469 229.160156 1058.765625 229.203125 1061.964844 229.28125 L 1062.578125 229.28125 C 1063.558594 229.28125 1064.527344 229.304688 1065.464844 229.339844 C 1066.402344 229.382812 1067.328125 229.398438 1068.230469 229.398438 C 1069.210938 229.476562 1070.15625 229.621094 1071.058594 229.832031 C 1071.960938 230.035156 1072.867188 230.265625 1073.769531 230.511719 C 1075.160156 231 1076.308594 231.738281 1077.210938 232.71875 C 1078.027344 233.789062 1078.4375 234.972656 1078.4375 236.285156 C 1078.4375 236.699219 1078.4375 237.167969 1078.4375 237.699219 C 1078.4375 238.234375 1078.359375 238.703125 1078.195312 239.117188 C 1078.027344 240.019531 1077.492188 240.835938 1076.597656 241.578125 C 1076.1875 242.15625 1075.40625 242.558594 1074.265625 242.804688 C 1073.199219 243.136719 1072.136719 243.339844 1071.066406 243.417969 C 1069.917969 243.664062 1068.773438 243.789062 1067.625 243.789062 L 1061.847656 243.789062 L 1039.105469 243.910156 L 1038.859375 268.011719 L 1063.328125 268.257812 L 1069.105469 268.257812 C 1069.761719 268.257812 1070.375 268.257812 1070.945312 268.257812 C 1071.515625 268.257812 1072.050781 268.300781 1072.539062 268.378906 C 1073.199219 268.546875 1073.789062 268.644531 1074.324219 268.691406 C 1074.859375 268.734375 1075.371094 268.832031 1075.863281 269 C 1076.84375 269.324219 1077.667969 269.78125 1078.324219 270.351562 C 1079.140625 271.171875 1079.675781 272.03125 1079.917969 272.933594 C 1080 273.347656 1080.0625 273.78125 1080.105469 274.226562 C 1080.152344 274.675781 1080.128906 275.152344 1080.050781 275.640625 C 1080.050781 276.957031 1079.636719 278.140625 1078.820312 279.210938 C 1077.839844 280.355469 1076.691406 281.09375 1075.378906 281.417969 C 1073.660156 282.15625 1071.769531 282.523438 1069.726562 282.523438 C 1068.820312 282.601562 1067.882812 282.644531 1066.894531 282.644531 C 1065.90625 282.644531 1064.964844 282.6875 1064.0625 282.769531 L 1063.328125 282.769531 C 1056.9375 282.933594 1050.296875 282.933594 1043.414062 282.769531 C 1041.777344 282.769531 1040.460938 282.746094 1039.480469 282.710938 C 1038.5 282.667969 1037.617188 282.652344 1036.835938 282.652344 C 1036.058594 282.652344 1035.257812 282.652344 1034.441406 282.652344 C 1033.617188 282.652344 1032.554688 282.652344 1031.242188 282.652344 C 1029.359375 282.820312 1027.796875 282.488281 1026.570312 281.671875 C 1025.667969 281.101562 1024.976562 280.320312 1024.476562 279.332031 C 1024.230469 279.085938 1024.109375 278.839844 1024.109375 278.59375 C 1024.027344 278.429688 1023.941406 278.304688 1023.863281 278.226562 C 1023.785156 278.148438 1023.695312 278.023438 1023.617188 277.859375 C 1023.453125 277.449219 1023.328125 277.019531 1023.25 276.566406 C 1023.171875 276.117188 1023.125 275.6875 1023.125 275.273438 C 1023.046875 274.863281 1022.980469 274.457031 1022.9375 274.046875 C 1022.894531 273.636719 1022.835938 273.230469 1022.75 272.820312 L 1022.75 270.855469 C 1022.75 270.53125 1022.773438 270.199219 1022.816406 269.875 C 1022.859375 269.546875 1022.875 269.214844 1022.875 268.890625 L 1022.875 259.304688 L 1023.121094 241.601562 L 1023.121094 225.246094 C 1023.121094 222.292969 1023.140625 219.671875 1023.183594 217.375 C 1023.226562 215.082031 1023.285156 212.582031 1023.371094 209.875 L 1023.371094 209.261719 C 1023.453125 208.359375 1023.515625 207.519531 1023.558594 206.742188 C 1023.601562 205.960938 1023.617188 205.167969 1023.617188 204.34375 C 1023.695312 202.707031 1024.152344 201.109375 1024.96875 199.550781 C 1025.292969 198.894531 1025.644531 198.324219 1026.015625 197.832031 C 1026.382812 197.339844 1026.894531 196.929688 1027.550781 196.605469 C 1028.78125 195.867188 1030.050781 195.5 1031.363281 195.5 C 1032.023438 195.5 1032.511719 195.542969 1032.835938 195.621094 L 1032.835938 195.5 C 1034.308594 195.5 1035.5 195.5 1036.402344 195.5 C 1037.304688 195.5 1038.1875 195.5 1039.046875 195.5 C 1039.90625 195.5 1040.828125 195.476562 1041.8125 195.433594 C 1042.792969 195.390625 1044.152344 195.371094 1045.871094 195.371094 C 1049.148438 195.289062 1052.257812 195.246094 1055.210938 195.246094 C 1058.164062 195.246094 1061.191406 195.289062 1064.308594 195.371094 L 1064.800781 195.371094 C 1065.703125 195.449219 1066.640625 195.492188 1067.628906 195.492188 C 1068.621094 195.492188 1069.558594 195.535156 1070.460938 195.617188 C 1071.363281 195.617188 1072.265625 195.714844 1073.167969 195.925781 C 1074.070312 196.128906 1074.972656 196.394531 1075.875 196.726562 C 1077.269531 197.140625 1078.417969 197.832031 1079.320312 198.8125 C 1080.054688 199.960938 1080.425781 201.109375 1080.425781 202.257812 C 1080.425781 202.75 1080.425781 203.21875 1080.425781 203.671875 C 1080.425781 204.121094 1080.34375 204.554688 1080.179688 204.964844 C 1080.101562 205.789062 1079.601562 206.648438 1078.707031 207.550781 C 1078.375 207.714844 1078.027344 207.917969 1077.660156 208.164062 C 1077.292969 208.410156 1076.859375 208.613281 1076.367188 208.777344 C 1075.875 208.945312 1075.363281 209.042969 1074.828125 209.089844 C 1074.292969 209.132812 1073.78125 209.1875 1073.292969 209.269531 C 1072.632812 209.433594 1072.042969 209.515625 1071.507812 209.515625 C 1070.972656 209.515625 1070.382812 209.515625 1069.726562 209.515625 L 1064.195312 209.515625 L 1039.601562 209.636719 L 1039.601562 209.984375 Z M 1039.589844 209.984375 " fill-opacity="1" fill-rule="nonzero"/></g></g><g clip-path="url(#0ad3b58c54)"><g clip-path="url(#2f11433b6f)"><path fill="#4e88d3" d="M 1076.265625 360.269531 L 392.167969 360.269531 C 387.164062 360.269531 383.113281 356.21875 383.113281 351.214844 C 383.113281 346.210938 387.164062 342.160156 392.167969 342.160156 L 1076.265625 342.160156 C 1081.269531 342.160156 1085.320312 346.210938 1085.320312 351.214844 C 1085.320312 356.21875 1081.269531 360.269531 1076.265625 360.269531 Z M 1076.265625 360.269531 " fill-opacity="1" fill-rule="nonzero"/></g></g><g clip-path="url(#2a987e2170)"><g clip-path="url(#53728d42c3)"><path fill="#4e88d3" d="M 1076.265625 415.804688 L 392.167969 415.804688 C 387.164062 415.804688 383.113281 411.753906 383.113281 406.75 C 383.113281 401.746094 387.164062 397.695312 392.167969 397.695312 L 1076.265625 397.695312 C 1081.269531 397.695312 1085.320312 401.746094 1085.320312 406.75 C 1085.320312 411.746094 1081.269531 415.804688 1076.265625 415.804688 Z M 1076.265625 415.804688 " fill-opacity="1" fill-rule="nonzero"/></g></g><g clip-path="url(#ae00ab87ff)"><g clip-path="url(#9d8be1417b)"><path fill="#fbcf56" d="M 263.726562 43.378906 L 324.230469 43.378906 L 324.230469 103.882812 L 263.726562 103.882812 Z M 263.726562 43.378906 " fill-opacity="1" fill-rule="nonzero"/></g></g><g clip-path="url(#e0c3968712)"><g clip-path="url(#d67c2e6915)"><path fill="#fbcf56" d="M 1117.269531 569.570312 L 1177.769531 569.570312 L 1177.769531 630.074219 L 1117.269531 630.074219 Z M 1117.269531 569.570312 " fill-opacity="1" fill-rule="nonzero"/></g></g><g clip-path="url(#b1603ebe52)"><g clip-path="url(#a46a319d65)"><path fill="#fbcf56" d="M 1117.269531 43.378906 L 1177.769531 43.378906 L 1177.769531 103.882812 L 1117.269531 103.882812 Z M 1117.269531 43.378906 " fill-opacity="1" fill-rule="nonzero"/></g></g><g clip-path="url(#1a4acc6204)"><g clip-path="url(#094e94e762)"><path fill="#fbcf56" d="M 263.726562 569.570312 L 324.230469 569.570312 L 324.230469 630.074219 L 263.726562 630.074219 Z M 263.726562 569.570312 " fill-opacity="1" fill-rule="nonzero"/></g></g><g clip-path="url(#38ff40a484)"><path fill="#e8b942" d="M 834.746094 774.140625 L 825.066406 768.90625 L 817.316406 764.734375 L 786.335938 748.011719 L 766.417969 777 L 761.441406 784.238281 L 755.222656 793.300781 L 720.914062 651.578125 L 720.824219 651.171875 L 720.929688 651.144531 L 728.769531 649.257812 L 735.140625 647.734375 L 786.039062 635.46875 L 792.390625 633.929688 L 800.351562 632.015625 Z M 834.746094 774.140625 " fill-opacity="1" fill-rule="nonzero"/></g><path fill="#ffffff" d="M 766.417969 777 L 761.441406 784.238281 L 728.769531 649.257812 L 735.140625 647.734375 Z M 766.417969 777 " fill-opacity="1" fill-rule="nonzero"/><path fill="#ffffff" d="M 825.066406 768.90625 L 817.316406 764.734375 L 786.039062 635.46875 L 792.390625 633.929688 Z M 825.066406 768.90625 " fill-opacity="1" fill-rule="nonzero"/><g clip-path="url(#0424ee1e2c)"><path fill="#e8b942" d="M 721.019531 651.171875 L 720.914062 651.578125 L 686.609375 793.300781 L 680.386719 784.25 L 675.414062 777 L 655.492188 748.011719 L 624.515625 764.734375 L 616.765625 768.90625 L 607.082031 774.140625 L 641.496094 632.015625 L 649.4375 633.929688 L 655.792969 635.453125 L 706.691406 647.71875 L 713.078125 649.257812 L 720.929688 651.144531 Z M 721.019531 651.171875 " fill-opacity="1" fill-rule="nonzero"/></g><path fill="#ffffff" d="M 713.078125 649.257812 L 680.386719 784.25 L 675.414062 777 L 706.691406 647.71875 Z M 713.078125 649.257812 " fill-opacity="1" fill-rule="nonzero"/><path fill="#ffffff" d="M 655.792969 635.453125 L 624.515625 764.734375 L 616.765625 768.90625 L 649.4375 633.929688 Z M 655.792969 635.453125 " fill-opacity="1" fill-rule="nonzero"/><g clip-path="url(#c5df31dc26)"><path fill="#fbcf56" d="M 836.832031 582.269531 L 825.484375 554.304688 L 832.890625 552.328125 L 814.664062 528.25 L 821.304688 524.421875 L 797.457031 505.875 L 802.882812 500.476562 L 775.9375 489.09375 L 778.875 482.09375 L 748.925781 477.921875 L 750.921875 470.535156 L 720.914062 474.242188 L 720.914062 466.585938 L 694.597656 477.234375 L 690.910156 470.535156 L 666.792969 488.722656 L 662.957031 482.09375 L 644.371094 505.875 L 638.949219 500.476562 L 627.167969 528.25 L 620.527344 524.421875 L 616.359375 554.304688 L 608.941406 552.328125 L 612.671875 582.269531 L 605 582.269531 L 616.359375 610.222656 L 608.941406 612.199219 L 627.167969 636.277344 L 620.527344 640.105469 L 644.371094 658.652344 L 638.949219 664.050781 L 665.925781 675.445312 L 662.957031 682.445312 L 692.902344 686.605469 L 690.910156 693.992188 L 720.914062 690.28125 L 720.914062 697.941406 L 748.925781 686.605469 L 750.921875 693.992188 L 775.035156 675.804688 L 778.875 682.445312 L 797.457031 658.652344 L 802.882812 664.050781 L 814.664062 636.277344 L 821.304688 640.105469 L 825.484375 610.222656 L 832.890625 612.199219 L 829.171875 582.269531 Z M 836.832031 582.269531 " fill-opacity="1" fill-rule="nonzero"/></g><path fill="#ffffff" d="M 693.59375 477.722656 L 721.609375 582.054688 L 720.160156 582.441406 L 692.148438 478.109375 Z M 693.59375 477.722656 " fill-opacity="1" fill-rule="evenodd"/><path fill="#ffffff" d="M 667.429688 488.332031 L 721.550781 581.871094 L 720.25 582.621094 L 666.128906 489.082031 Z M 667.429688 488.332031 " fill-opacity="1" fill-rule="evenodd"/><path fill="#ffffff" d="M 644.90625 505.351562 L 721.453125 581.734375 L 720.394531 582.792969 L 643.84375 506.40625 Z M 644.90625 505.351562 " fill-opacity="1" fill-rule="evenodd"/><path fill="#ffffff" d="M 627.535156 527.613281 L 721.285156 581.628906 L 720.539062 582.921875 L 626.785156 528.910156 Z M 627.535156 527.613281 " fill-opacity="1" fill-rule="evenodd"/><path fill="#ffffff" d="M 616.535156 553.582031 L 721.101562 581.539062 L 720.710938 582.984375 L 616.148438 555.027344 Z M 616.535156 553.582031 " fill-opacity="1" fill-rule="evenodd"/><path fill="#ffffff" d="M 612.671875 581.523438 L 720.929688 581.523438 L 720.929688 583.019531 L 612.671875 583.019531 Z M 612.671875 581.523438 " fill-opacity="1" fill-rule="evenodd"/><path fill="#ffffff" d="M 720.714844 581.523438 L 721.101562 582.96875 L 616.535156 610.925781 L 616.148438 609.480469 Z M 720.714844 581.523438 " fill-opacity="1" fill-rule="evenodd"/><path fill="#ffffff" d="M 825.265625 553.574219 L 825.65625 555.019531 L 721.089844 582.976562 L 720.703125 581.53125 Z M 825.265625 553.574219 " fill-opacity="1" fill-rule="evenodd"/><path fill="#ffffff" d="M 814.292969 527.636719 L 815.042969 528.933594 L 721.28125 582.9375 L 720.53125 581.640625 Z M 814.292969 527.636719 " fill-opacity="1" fill-rule="evenodd"/><path fill="#ffffff" d="M 796.925781 505.351562 L 797.984375 506.410156 L 721.4375 582.792969 L 720.375 581.738281 Z M 796.925781 505.351562 " fill-opacity="1" fill-rule="evenodd"/><path fill="#ffffff" d="M 774.390625 488.328125 L 775.6875 489.074219 L 721.578125 582.625 L 720.28125 581.875 Z M 774.390625 488.328125 " fill-opacity="1" fill-rule="evenodd"/><path fill="#ffffff" d="M 748.179688 477.730469 L 749.628906 478.117188 L 721.617188 582.445312 L 720.167969 582.058594 Z M 748.179688 477.730469 " fill-opacity="1" fill-rule="evenodd"/><path fill="#ffffff" d="M 720.164062 474.242188 L 721.664062 474.242188 L 721.664062 582.269531 L 720.164062 582.269531 Z M 720.164062 474.242188 " fill-opacity="1" fill-rule="evenodd"/><path fill="#ffffff" d="M 721.621094 582.050781 L 749.636719 686.394531 L 748.1875 686.78125 L 720.171875 582.4375 Z M 721.621094 582.050781 " fill-opacity="1" fill-rule="evenodd"/><path fill="#ffffff" d="M 721.5625 581.875 L 775.691406 675.425781 L 774.390625 676.175781 L 720.261719 582.625 Z M 721.5625 581.875 " fill-opacity="1" fill-rule="evenodd"/><path fill="#ffffff" d="M 721.445312 581.730469 L 797.992188 658.117188 L 796.933594 659.175781 L 720.386719 582.789062 Z M 721.445312 581.730469 " fill-opacity="1" fill-rule="evenodd"/><path fill="#ffffff" d="M 721.28125 581.617188 L 815.03125 635.632812 L 814.28125 636.925781 L 720.53125 582.914062 Z M 721.28125 581.617188 " fill-opacity="1" fill-rule="evenodd"/><path fill="#ffffff" d="M 721.085938 581.542969 L 825.652344 609.5 L 825.261719 610.945312 L 720.699219 582.988281 Z M 721.085938 581.542969 " fill-opacity="1" fill-rule="evenodd"/><path fill="#ffffff" d="M 720.914062 581.523438 L 829.171875 581.523438 L 829.171875 583.019531 L 720.914062 583.019531 Z M 720.914062 581.523438 " fill-opacity="1" fill-rule="evenodd"/><path fill="#ffffff" d="M 825.265625 553.574219 L 825.65625 555.019531 L 721.089844 582.976562 L 720.703125 581.53125 Z M 825.265625 553.574219 " fill-opacity="1" fill-rule="evenodd"/><path fill="#ffffff" d="M 720.714844 581.523438 L 721.101562 582.96875 L 616.535156 610.925781 L 616.148438 609.480469 Z M 720.714844 581.523438 " fill-opacity="1" fill-rule="evenodd"/><path fill="#ffffff" d="M 720.539062 581.644531 L 721.289062 582.941406 L 627.527344 636.941406 L 626.777344 635.648438 Z M 720.539062 581.644531 " fill-opacity="1" fill-rule="evenodd"/><path fill="#ffffff" d="M 720.382812 581.730469 L 721.441406 582.789062 L 644.894531 659.171875 L 643.832031 658.117188 Z M 720.382812 581.730469 " fill-opacity="1" fill-rule="evenodd"/><path fill="#ffffff" d="M 720.28125 581.859375 L 721.578125 582.605469 L 667.460938 676.167969 L 666.164062 675.421875 Z M 720.28125 581.859375 " fill-opacity="1" fill-rule="evenodd"/><path fill="#ffffff" d="M 720.171875 582.0625 L 721.621094 582.449219 L 693.601562 686.792969 L 692.15625 686.40625 Z M 720.171875 582.0625 " fill-opacity="1" fill-rule="evenodd"/><path fill="#ffffff" d="M 720.164062 582.269531 L 721.664062 582.269531 L 721.664062 690.296875 L 720.164062 690.296875 Z M 720.164062 582.269531 " fill-opacity="1" fill-rule="evenodd"/><path fill="#ffffff" d="M 800.199219 582.269531 C 800.199219 583.566406 800.167969 584.859375 800.105469 586.152344 C 800.042969 587.445312 799.945312 588.738281 799.820312 590.027344 C 799.691406 591.316406 799.535156 592.597656 799.34375 593.878906 C 799.152344 595.160156 798.929688 596.4375 798.675781 597.707031 C 798.425781 598.976562 798.140625 600.238281 797.824219 601.496094 C 797.507812 602.75 797.164062 604 796.785156 605.238281 C 796.410156 606.476562 796.003906 607.707031 795.566406 608.925781 C 795.128906 610.144531 794.664062 611.351562 794.164062 612.546875 C 793.667969 613.746094 793.144531 614.925781 792.589844 616.097656 C 792.035156 617.269531 791.449219 618.425781 790.839844 619.566406 C 790.226562 620.707031 789.589844 621.835938 788.921875 622.945312 C 788.253906 624.054688 787.558594 625.148438 786.839844 626.226562 C 786.117188 627.304688 785.371094 628.359375 784.597656 629.402344 C 783.824219 630.441406 783.027344 631.460938 782.203125 632.460938 C 781.382812 633.464844 780.535156 634.445312 779.664062 635.402344 C 778.789062 636.363281 777.894531 637.300781 776.980469 638.214844 C 776.0625 639.132812 775.121094 640.023438 774.160156 640.894531 C 773.199219 641.761719 772.214844 642.609375 771.214844 643.429688 C 770.210938 644.25 769.1875 645.046875 768.144531 645.820312 C 767.105469 646.589844 766.042969 647.335938 764.964844 648.054688 C 763.886719 648.773438 762.789062 649.464844 761.675781 650.132812 C 760.5625 650.796875 759.433594 651.4375 758.289062 652.046875 C 757.144531 652.65625 755.988281 653.238281 754.8125 653.792969 C 753.640625 654.347656 752.457031 654.871094 751.257812 655.367188 C 750.058594 655.863281 748.847656 656.328125 747.625 656.761719 C 746.40625 657.199219 745.171875 657.605469 743.929688 657.980469 C 742.6875 658.359375 741.4375 658.703125 740.179688 659.015625 C 738.921875 659.332031 737.65625 659.617188 736.382812 659.867188 C 735.109375 660.121094 733.832031 660.34375 732.550781 660.53125 C 731.265625 660.722656 729.976562 660.878906 728.6875 661.007812 C 727.394531 661.132812 726.101562 661.230469 724.804688 661.292969 C 723.511719 661.355469 722.214844 661.386719 720.914062 661.386719 C 719.617188 661.386719 718.320312 661.355469 717.023438 661.292969 C 715.730469 661.230469 714.4375 661.132812 713.144531 661.007812 C 711.851562 660.878906 710.566406 660.722656 709.28125 660.53125 C 708 660.34375 706.71875 660.121094 705.449219 659.867188 C 704.175781 659.617188 702.910156 659.332031 701.652344 659.015625 C 700.390625 658.703125 699.140625 658.359375 697.898438 657.980469 C 696.660156 657.605469 695.425781 657.199219 694.207031 656.761719 C 692.984375 656.328125 691.773438 655.863281 690.574219 655.367188 C 689.375 654.871094 688.191406 654.347656 687.015625 653.792969 C 685.84375 653.238281 684.683594 652.65625 683.539062 652.046875 C 682.394531 651.4375 681.269531 650.796875 680.15625 650.132812 C 679.042969 649.464844 677.945312 648.773438 676.867188 648.054688 C 675.789062 647.335938 674.726562 646.589844 673.683594 645.820312 C 672.644531 645.046875 671.621094 644.25 670.617188 643.429688 C 669.613281 642.609375 668.632812 641.761719 667.671875 640.894531 C 666.710938 640.023438 665.769531 639.132812 664.851562 638.214844 C 663.933594 637.300781 663.039062 636.363281 662.167969 635.402344 C 661.296875 634.445312 660.449219 633.464844 659.628906 632.460938 C 658.804688 631.460938 658.003906 630.441406 657.234375 629.402344 C 656.460938 628.359375 655.714844 627.304688 654.992188 626.226562 C 654.269531 625.148438 653.578125 624.054688 652.910156 622.945312 C 652.242188 621.835938 651.605469 620.707031 650.992188 619.566406 C 650.378906 618.425781 649.796875 617.269531 649.242188 616.097656 C 648.6875 614.925781 648.160156 613.746094 647.664062 612.546875 C 647.167969 611.351562 646.703125 610.144531 646.265625 608.925781 C 645.828125 607.707031 645.421875 606.476562 645.042969 605.238281 C 644.667969 604 644.320312 602.75 644.007812 601.496094 C 643.691406 600.238281 643.40625 598.976562 643.152344 597.707031 C 642.902344 596.4375 642.679688 595.160156 642.488281 593.878906 C 642.296875 592.597656 642.140625 591.316406 642.011719 590.027344 C 641.882812 588.738281 641.789062 587.445312 641.726562 586.152344 C 641.660156 584.859375 641.628906 583.566406 641.628906 582.269531 C 641.628906 580.976562 641.660156 579.683594 641.726562 578.390625 C 641.789062 577.09375 641.882812 575.804688 642.011719 574.515625 C 642.140625 573.226562 642.296875 571.941406 642.488281 570.660156 C 642.679688 569.382812 642.902344 568.105469 643.152344 566.835938 C 643.40625 565.566406 643.691406 564.304688 644.007812 563.046875 C 644.320312 561.792969 644.667969 560.542969 645.042969 559.304688 C 645.421875 558.066406 645.828125 556.835938 646.265625 555.617188 C 646.703125 554.398438 647.167969 553.191406 647.664062 551.992188 C 648.160156 550.796875 648.6875 549.613281 649.242188 548.445312 C 649.796875 547.273438 650.378906 546.117188 650.992188 544.976562 C 651.605469 543.832031 652.242188 542.707031 652.910156 541.597656 C 653.578125 540.484375 654.269531 539.390625 654.992188 538.316406 C 655.714844 537.238281 656.460938 536.179688 657.234375 535.140625 C 658.003906 534.101562 658.804688 533.082031 659.628906 532.078125 C 660.449219 531.078125 661.296875 530.097656 662.167969 529.140625 C 663.039062 528.179688 663.933594 527.242188 664.851562 526.328125 C 665.769531 525.410156 666.710938 524.519531 667.671875 523.648438 C 668.632812 522.78125 669.613281 521.933594 670.617188 521.113281 C 671.621094 520.292969 672.644531 519.496094 673.683594 518.722656 C 674.726562 517.953125 675.789062 517.207031 676.867188 516.488281 C 677.945312 515.769531 679.042969 515.074219 680.15625 514.410156 C 681.269531 513.742188 682.394531 513.105469 683.539062 512.496094 C 684.683594 511.886719 685.84375 511.304688 687.015625 510.75 C 688.191406 510.195312 689.375 509.671875 690.574219 509.175781 C 691.773438 508.679688 692.984375 508.214844 694.207031 507.777344 C 695.425781 507.34375 696.660156 506.9375 697.898438 506.558594 C 699.140625 506.183594 700.390625 505.839844 701.652344 505.523438 C 702.910156 505.210938 704.175781 504.925781 705.449219 504.675781 C 706.71875 504.421875 708 504.199219 709.28125 504.011719 C 710.566406 503.820312 711.851562 503.660156 713.144531 503.535156 C 714.4375 503.40625 715.730469 503.3125 717.023438 503.25 C 718.320312 503.183594 719.617188 503.152344 720.914062 503.152344 C 722.214844 503.152344 723.511719 503.183594 724.804688 503.25 C 726.101562 503.3125 727.394531 503.40625 728.6875 503.535156 C 729.976562 503.660156 731.265625 503.820312 732.550781 504.011719 C 733.832031 504.199219 735.109375 504.421875 736.382812 504.675781 C 737.65625 504.925781 738.921875 505.210938 740.179688 505.523438 C 741.4375 505.839844 742.6875 506.183594 743.929688 506.558594 C 745.171875 506.9375 746.40625 507.34375 747.625 507.777344 C 748.847656 508.214844 750.058594 508.679688 751.257812 509.175781 C 752.457031 509.671875 753.640625 510.195312 754.8125 510.75 C 755.988281 511.304688 757.144531 511.886719 758.289062 512.496094 C 759.433594 513.105469 760.5625 513.742188 761.675781 514.410156 C 762.789062 515.074219 763.886719 515.769531 764.964844 516.488281 C 766.042969 517.207031 767.105469 517.953125 768.144531 518.722656 C 769.1875 519.496094 770.210938 520.292969 771.214844 521.113281 C 772.214844 521.933594 773.199219 522.78125 774.160156 523.648438 C 775.121094 524.519531 776.0625 525.410156 776.980469 526.328125 C 777.894531 527.242188 778.789062 528.179688 779.664062 529.140625 C 780.535156 530.097656 781.382812 531.078125 782.203125 532.078125 C 783.027344 533.082031 783.824219 534.101562 784.597656 535.140625 C 785.371094 536.179688 786.117188 537.238281 786.839844 538.316406 C 787.558594 539.390625 788.253906 540.484375 788.921875 541.597656 C 789.589844 542.707031 790.226562 543.832031 790.839844 544.976562 C 791.449219 546.117188 792.035156 547.273438 792.589844 548.445312 C 793.144531 549.613281 793.667969 550.796875 794.164062 551.992188 C 794.664062 553.191406 795.128906 554.398438 795.566406 555.617188 C 796.003906 556.835938 796.410156 558.066406 796.785156 559.304688 C 797.164062 560.542969 797.507812 561.792969 797.824219 563.046875 C 798.140625 564.304688 798.425781 565.566406 798.675781 566.835938 C 798.929688 568.105469 799.152344 569.382812 799.34375 570.660156 C 799.535156 571.941406 799.691406 573.226562 799.820312 574.515625 C 799.945312 575.804688 800.042969 577.09375 800.105469 578.390625 C 800.167969 579.683594 800.199219 580.976562 800.199219 582.269531 Z M 800.199219 582.269531 " fill-opacity="1" fill-rule="nonzero"/><path fill="#fbcf56" d="M 791.71875 582.269531 C 791.71875 583.425781 791.6875 584.582031 791.632812 585.738281 C 791.574219 586.894531 791.492188 588.046875 791.375 589.195312 C 791.261719 590.347656 791.121094 591.492188 790.953125 592.636719 C 790.78125 593.78125 790.582031 594.921875 790.355469 596.054688 C 790.132812 597.1875 789.878906 598.316406 789.597656 599.4375 C 789.3125 600.558594 789.003906 601.671875 788.667969 602.78125 C 788.332031 603.886719 787.96875 604.984375 787.578125 606.074219 C 787.1875 607.160156 786.773438 608.238281 786.328125 609.308594 C 785.882812 610.375 785.414062 611.433594 784.917969 612.480469 C 784.425781 613.523438 783.902344 614.554688 783.359375 615.574219 C 782.8125 616.597656 782.242188 617.601562 781.644531 618.59375 C 781.050781 619.585938 780.429688 620.5625 779.785156 621.523438 C 779.140625 622.484375 778.476562 623.429688 777.785156 624.359375 C 777.09375 625.289062 776.382812 626.199219 775.644531 627.09375 C 774.910156 627.984375 774.15625 628.859375 773.375 629.71875 C 772.597656 630.574219 771.800781 631.410156 770.980469 632.230469 C 770.160156 633.046875 769.320312 633.84375 768.464844 634.621094 C 767.605469 635.398438 766.726562 636.152344 765.832031 636.886719 C 764.9375 637.621094 764.023438 638.332031 763.09375 639.019531 C 762.160156 639.707031 761.214844 640.375 760.25 641.015625 C 759.289062 641.660156 758.308594 642.277344 757.316406 642.871094 C 756.320312 643.464844 755.3125 644.035156 754.292969 644.582031 C 753.269531 645.125 752.234375 645.644531 751.1875 646.140625 C 750.140625 646.632812 749.082031 647.101562 748.011719 647.546875 C 746.941406 647.988281 745.859375 648.402344 744.769531 648.792969 C 743.675781 649.183594 742.578125 649.546875 741.46875 649.878906 C 740.359375 650.214844 739.242188 650.523438 738.117188 650.804688 C 736.996094 651.085938 735.863281 651.339844 734.726562 651.566406 C 733.59375 651.792969 732.449219 651.988281 731.304688 652.160156 C 730.160156 652.328125 729.007812 652.46875 727.855469 652.582031 C 726.703125 652.695312 725.546875 652.78125 724.390625 652.839844 C 723.230469 652.894531 722.074219 652.921875 720.914062 652.921875 C 719.757812 652.921875 718.597656 652.894531 717.441406 652.839844 C 716.285156 652.78125 715.128906 652.695312 713.976562 652.582031 C 712.824219 652.46875 711.671875 652.328125 710.527344 652.160156 C 709.378906 651.988281 708.238281 651.792969 707.101562 651.566406 C 705.964844 651.339844 704.835938 651.085938 703.710938 650.804688 C 702.589844 650.523438 701.472656 650.214844 700.363281 649.878906 C 699.253906 649.546875 698.152344 649.183594 697.0625 648.792969 C 695.972656 648.402344 694.890625 647.988281 693.820312 647.546875 C 692.75 647.101562 691.691406 646.632812 690.644531 646.140625 C 689.597656 645.644531 688.5625 645.125 687.539062 644.582031 C 686.519531 644.035156 685.511719 643.464844 684.515625 642.871094 C 683.523438 642.277344 682.542969 641.660156 681.578125 641.015625 C 680.617188 640.375 679.667969 639.707031 678.738281 639.019531 C 677.808594 638.332031 676.894531 637.621094 676 636.886719 C 675.101562 636.152344 674.226562 635.398438 673.367188 634.621094 C 672.507812 633.84375 671.671875 633.046875 670.851562 632.230469 C 670.03125 631.410156 669.234375 630.574219 668.453125 629.71875 C 667.675781 628.859375 666.917969 627.984375 666.183594 627.09375 C 665.449219 626.199219 664.738281 625.289062 664.046875 624.359375 C 663.355469 623.429688 662.691406 622.484375 662.046875 621.523438 C 661.402344 620.5625 660.78125 619.585938 660.1875 618.59375 C 659.589844 617.601562 659.019531 616.597656 658.472656 615.574219 C 657.925781 614.554688 657.40625 613.523438 656.910156 612.480469 C 656.414062 611.433594 655.945312 610.375 655.503906 609.308594 C 655.058594 608.238281 654.644531 607.160156 654.253906 606.074219 C 653.863281 604.984375 653.5 603.886719 653.164062 602.78125 C 652.824219 601.671875 652.515625 600.558594 652.234375 599.4375 C 651.953125 598.316406 651.699219 597.1875 651.472656 596.054688 C 651.246094 594.921875 651.050781 593.78125 650.878906 592.636719 C 650.710938 591.492188 650.566406 590.347656 650.453125 589.195312 C 650.339844 588.046875 650.253906 586.894531 650.199219 585.738281 C 650.140625 584.582031 650.113281 583.425781 650.113281 582.269531 C 650.113281 581.113281 650.140625 579.960938 650.199219 578.804688 C 650.253906 577.648438 650.339844 576.496094 650.453125 575.347656 C 650.566406 574.195312 650.710938 573.046875 650.878906 571.902344 C 651.050781 570.761719 651.246094 569.621094 651.472656 568.488281 C 651.699219 567.351562 651.953125 566.226562 652.234375 565.105469 C 652.515625 563.980469 652.824219 562.867188 653.164062 561.761719 C 653.5 560.65625 653.863281 559.558594 654.253906 558.46875 C 654.644531 557.378906 655.058594 556.300781 655.503906 555.234375 C 655.945312 554.164062 656.414062 553.109375 656.910156 552.0625 C 657.40625 551.019531 657.925781 549.984375 658.472656 548.964844 C 659.019531 547.945312 659.589844 546.941406 660.1875 545.949219 C 660.78125 544.957031 661.402344 543.980469 662.046875 543.019531 C 662.691406 542.058594 663.355469 541.113281 664.046875 540.183594 C 664.738281 539.253906 665.449219 538.34375 666.183594 537.449219 C 666.917969 536.554688 667.675781 535.679688 668.453125 534.824219 C 669.234375 533.96875 670.03125 533.128906 670.851562 532.3125 C 671.671875 531.496094 672.507812 530.699219 673.367188 529.921875 C 674.226562 529.144531 675.101562 528.390625 676 527.65625 C 676.894531 526.921875 677.808594 526.210938 678.738281 525.523438 C 679.667969 524.835938 680.617188 524.167969 681.578125 523.527344 C 682.542969 522.882812 683.523438 522.265625 684.515625 521.671875 C 685.511719 521.078125 686.519531 520.507812 687.539062 519.960938 C 688.5625 519.417969 689.597656 518.898438 690.644531 518.402344 C 691.691406 517.90625 692.75 517.441406 693.820312 516.996094 C 694.890625 516.554688 695.972656 516.136719 697.0625 515.75 C 698.152344 515.359375 699.253906 514.996094 700.363281 514.660156 C 701.472656 514.324219 702.589844 514.015625 703.710938 513.738281 C 704.835938 513.457031 705.964844 513.203125 707.101562 512.976562 C 708.238281 512.75 709.378906 512.554688 710.527344 512.382812 C 711.671875 512.214844 712.824219 512.074219 713.976562 511.960938 C 715.128906 511.847656 716.285156 511.761719 717.441406 511.703125 C 718.597656 511.648438 719.757812 511.617188 720.914062 511.617188 C 722.074219 511.617188 723.230469 511.648438 724.390625 511.703125 C 725.546875 511.761719 726.703125 511.847656 727.855469 511.960938 C 729.007812 512.074219 730.160156 512.214844 731.304688 512.382812 C 732.449219 512.554688 733.59375 512.75 734.726562 512.976562 C 735.863281 513.203125 736.996094 513.457031 738.117188 513.738281 C 739.242188 514.015625 740.359375 514.324219 741.46875 514.660156 C 742.578125 514.996094 743.675781 515.359375 744.769531 515.75 C 745.859375 516.136719 746.941406 516.554688 748.011719 516.996094 C 749.082031 517.441406 750.140625 517.90625 751.1875 518.402344 C 752.234375 518.898438 753.269531 519.417969 754.292969 519.960938 C 755.3125 520.507812 756.320312 521.078125 757.316406 521.671875 C 758.308594 522.265625 759.289062 522.882812 760.25 523.527344 C 761.214844 524.167969 762.160156 524.835938 763.09375 525.523438 C 764.023438 526.210938 764.9375 526.921875 765.832031 527.65625 C 766.726562 528.390625 767.605469 529.144531 768.464844 529.921875 C 769.320312 530.699219 770.160156 531.496094 770.980469 532.3125 C 771.800781 533.128906 772.597656 533.96875 773.375 534.824219 C 774.15625 535.679688 774.910156 536.554688 775.644531 537.449219 C 776.382812 538.34375 777.09375 539.253906 777.785156 540.183594 C 778.476562 541.113281 779.140625 542.058594 779.785156 543.019531 C 780.429688 543.980469 781.050781 544.957031 781.644531 545.949219 C 782.242188 546.941406 782.8125 547.945312 783.359375 548.964844 C 783.902344 549.984375 784.425781 551.019531 784.921875 552.0625 C 785.414062 553.109375 785.882812 554.164062 786.328125 555.234375 C 786.773438 556.300781 787.1875 557.378906 787.578125 558.46875 C 787.96875 559.558594 788.332031 560.65625 788.667969 561.761719 C 789.003906 562.867188 789.3125 563.980469 789.597656 565.105469 C 789.878906 566.226562 790.132812 567.351562 790.355469 568.488281 C 790.582031 569.621094 790.78125 570.761719 790.953125 571.902344 C 791.121094 573.046875 791.261719 574.195312 791.375 575.347656 C 791.492188 576.496094 791.574219 577.648438 791.632812 578.804688 C 791.6875 579.960938 791.71875 581.113281 791.71875 582.269531 Z M 791.71875 582.269531 " fill-opacity="1" fill-rule="nonzero"/></svg>